{
.appVersion = "895";
DisplayStrings = (
"The bold anonymity of sweet sour grapes."
);
copyright = "Copyright 2016 Jeremy Tribby. SIL OFL License v1.1.";
date = "2016-07-12 00:27:02 +0000";
designer = "Jeremy Tribby";
designerURL = "http://tribby.com/";
familyName = Barlow;
featurePrefixes = (
{
automatic = 1;
code = "languagesystem DFLT dflt;\012";
name = Languagesystems;
}
);
features = (
{
automatic = 1;
code = "sub hyphen hyphen by hyphen_hyphen.liga;\012";
name = liga;
}
);
fontMaster = (
{
alignmentZones = (
"{800, 16}",
"{700, 10}",
"{500, 6}",
"{0, -10}",
"{-200, -12}"
);
ascender = 800;
capHeight = 700;
customParameters = (
{
name = paramArea;
value = "302";
},
{
name = paramDepth;
value = "16";
},
{
name = paramOver;
value = "0";
}
);
descender = -200;
horizontalStems = (
22,
22
);
id = "262880E7-CFE1-4BDA-902E-E24798F3240A";
userData = {
GSCornerRadius = 8;
GSOffsetHorizontal = 11;
GSOffsetMakeStroke = 1;
GSOffsetVertical = 10;
noodleExtremesAndInflections = 1;
noodleRemoveOverlap = 1;
noodleThickness = "22.0";
};
verticalStems = (
21,
21
);
visible = 1;
weight = Light;
weightValue = 23;
xHeight = 500;
},
{
alignmentZones = (
"{800, 16}",
"{700, 11}",
"{500, 9}",
"{0, -11}",
"{-200, -10}"
);
ascender = 800;
capHeight = 700;
customParameters = (
{
name = paramArea;
value = "220";
},
{
name = paramDepth;
value = "20";
},
{
name = paramOver;
value = "2";
}
);
descender = -200;
horizontalStems = (
198,
208
);
id = "4F25946F-63AC-42D6-8D55-01CF6A99025B";
userData = {
GSCornerRadius = 12;
GSOffsetHorizontal = 104;
GSOffsetMakeStroke = 1;
GSOffsetVertical = 102;
noodleExtremesAndInflections = 1;
noodleRemoveOverlap = 1;
noodleThickness = "50.0";
};
verticalStems = (
202,
168
);
visible = 1;
weight = Bold;
weightValue = 202;
xHeight = 500;
}
);
glyphs = (
{
color = 1;
glyphname = A;
lastChange = "2016-10-18 06:05:37 +0000";
layers = (
{
layerId = "262880E7-CFE1-4BDA-902E-E24798F3240A";
paths = (
{
closed = 1;
nodes = (
"76 0 LINE",
"234 656 LINE",
"392 0 LINE",
"414 0 LINE",
"245 700 LINE",
"223 700 LINE",
"54 0 LINE"
);
},
{
closed = 1;
nodes = (
"357 145 LINE",
"357 166 LINE",
"110 166 LINE",
"110 145 LINE"
);
}
);
width = 468;
},
{
layerId = "4F25946F-63AC-42D6-8D55-01CF6A99025B";
paths = (
{
closed = 1;
nodes = (
"218 0 LINE",
"321 450 LINE",
"424 0 LINE",
"647 0 LINE",
"437 700 LINE",
"205 700 LINE",
"-5 0 LINE"
);
},
{
closed = 1;
nodes = (
"471 108 LINE",
"471 247 LINE",
"171 247 LINE",
"171 108 LINE"
);
}
);
width = 642;
},
{
associatedMasterId = "262880E7-CFE1-4BDA-902E-E24798F3240A";
layerId = "09B97E43-C149-48A2-81D6-63259EF6020F";
name = "DemiBold{119,100}";
paths = (
{
closed = 1;
nodes = (
"149 0 LINE",
"254 527 LINE",
"359 0 LINE",
"490 0 LINE",
"321 700 LINE",
"187 700 LINE",
"18 0 LINE"
);
},
{
closed = 1;
nodes = (
"391 101 LINE",
"391 212 LINE",
"116 212 LINE",
"116 101 LINE"
);
}
);
width = 508;
}
);
unicode = 0041;
},
{
color = 1;
glyphname = B;
lastChange = "2016-10-18 03:30:19 +0000";
layers = (
{
layerId = "262880E7-CFE1-4BDA-902E-E24798F3240A";
paths = (
{
closed = 1;
nodes = (
"263 351 LINE SMOOTH",
"378 351 OFFCURVE",
"449 415 OFFCURVE",
"449 523 CURVE SMOOTH",
"449 631 OFFCURVE",
"378 700 OFFCURVE",
"263 700 CURVE SMOOTH",
"117 700 LINE",
"117 351 LINE"
);
},
{
closed = 1;
nodes = (
"263 0 LINE SMOOTH",
"378 0 OFFCURVE",
"449 71 OFFCURVE",
"449 186 CURVE SMOOTH",
"449 301 OFFCURVE",
"378 372 OFFCURVE",
"263 372 CURVE SMOOTH",
"117 372 LINE",
"117 0 LINE"
);
},
{
closed = 1;
nodes = (
"139 351 LINE",
"263 351 LINE SMOOTH",
"365 351 OFFCURVE",
"427 288 OFFCURVE",
"427 186 CURVE SMOOTH",
"427 84 OFFCURVE",
"365 22 OFFCURVE",
"263 22 CURVE SMOOTH",
"139 22 LINE"
);
},
{
closed = 1;
nodes = (
"139 679 LINE",
"263 679 LINE SMOOTH",
"365 679 OFFCURVE",
"427 618 OFFCURVE",
"427 523 CURVE SMOOTH",
"427 428 OFFCURVE",
"365 372 OFFCURVE",
"263 372 CURVE SMOOTH",
"139 372 LINE"
);
}
);
width = 537;
},
{
layerId = "4F25946F-63AC-42D6-8D55-01CF6A99025B";
paths = (
{
closed = 1;
nodes = (
"298 308 LINE SMOOTH",
"444 308 OFFCURVE",
"542 386 OFFCURVE",
"542 502 CURVE SMOOTH",
"542 621 OFFCURVE",
"442 700 OFFCURVE",
"293 700 CURVE SMOOTH",
"45 700 LINE",
"45 308 LINE"
);
},
{
closed = 1;
nodes = (
"322 0 LINE SMOOTH",
"467 0 OFFCURVE",
"563 82 OFFCURVE",
"563 205 CURVE SMOOTH",
"563 338 OFFCURVE",
"457 426 OFFCURVE",
"297 426 CURVE",
"45 426 LINE",
"45 0 LINE"
);
},
{
closed = 1;
nodes = (
"238 286 LINE",
"303 286 LINE SMOOTH",
"334 286 OFFCURVE",
"354 266 OFFCURVE",
"354 235 CURVE SMOOTH",
"354 203 OFFCURVE",
"333 182 OFFCURVE",
"302 182 CURVE SMOOTH",
"238 182 LINE"
);
},
{
closed = 1;
nodes = (
"238 536 LINE",
"297 536 LINE",
"326 536 OFFCURVE",
"346 517 OFFCURVE",
"346 489 CURVE SMOOTH",
"346 462 OFFCURVE",
"326 444 OFFCURVE",
"297 444 CURVE",
"238 444 LINE"
);
}
);
width = 575;
}
);
unicode = 0042;
},
{
color = 1;
glyphname = C;
lastChange = "2016-10-18 03:30:19 +0000";
layers = (
{
layerId = "262880E7-CFE1-4BDA-902E-E24798F3240A";
paths = (
{
closed = 1;
nodes = (
"367 -9 OFFCURVE",
"429 50 OFFCURVE",
"429 150 CURVE SMOOTH",
"429 152 LINE",
"407 152 LINE",
"407 150 LINE SMOOTH",
"407 64 OFFCURVE",
"355 11 OFFCURVE",
"268 11 CURVE SMOOTH",
"181 11 OFFCURVE",
"129 64 OFFCURVE",
"129 150 CURVE SMOOTH",
"129 550 LINE SMOOTH",
"129 637 OFFCURVE",
"183 690 OFFCURVE",
"268 690 CURVE SMOOTH",
"353 690 OFFCURVE",
"407 637 OFFCURVE",
"407 550 CURVE SMOOTH",
"407 548 LINE",
"429 548 LINE",
"429 550 LINE SMOOTH",
"429 650 OFFCURVE",
"367 709 OFFCURVE",
"268 709 CURVE SMOOTH",
"169 709 OFFCURVE",
"107 650 OFFCURVE",
"107 550 CURVE SMOOTH",
"107 150 LINE SMOOTH",
"107 50 OFFCURVE",
"169 -9 OFFCURVE",
"268 -9 CURVE SMOOTH"
);
}
);
width = 496;
},
{
layerId = "4F25946F-63AC-42D6-8D55-01CF6A99025B";
paths = (
{
closed = 1;
nodes = (
"439 -10 OFFCURVE",
"541 67 OFFCURVE",
"541 183 CURVE SMOOTH",
"541 278 LINE",
"329 278 LINE",
"329 223 LINE SMOOTH",
"329 196 OFFCURVE",
"311 178 OFFCURVE",
"285 178 CURVE SMOOTH",
"259 178 OFFCURVE",
"241 196 OFFCURVE",
"241 223 CURVE SMOOTH",
"241 477 LINE SMOOTH",
"241 504 OFFCURVE",
"259 522 OFFCURVE",
"285 522 CURVE SMOOTH",
"311 522 OFFCURVE",
"329 504 OFFCURVE",
"329 477 CURVE SMOOTH",
"329 422 LINE",
"541 422 LINE",
"541 517 LINE SMOOTH",
"541 633 OFFCURVE",
"439 710 OFFCURVE",
"285 710 CURVE SMOOTH",
"131 710 OFFCURVE",
"29 633 OFFCURVE",
"29 517 CURVE SMOOTH",
"29 183 LINE SMOOTH",
"29 67 OFFCURVE",
"131 -10 OFFCURVE",
"285 -10 CURVE SMOOTH"
);
}
);
width = 560;
}
);
unicode = 0043;
},
{
color = 1;
glyphname = D;
lastChange = "2016-10-18 05:30:31 +0000";
layers = (
{
layerId = "262880E7-CFE1-4BDA-902E-E24798F3240A";
paths = (
{
closed = 1;
nodes = (
"268 0 LINE SMOOTH",
"371 0 OFFCURVE",
"439 65 OFFCURVE",
"439 180 CURVE SMOOTH",
"439 520 LINE SMOOTH",
"439 635 OFFCURVE",
"371 700 OFFCURVE",
"268 700 CURVE SMOOTH",
"117 700 LINE",
"117 0 LINE"
);
},
{
closed = 1;
nodes = (
"139 679 LINE",
"268 679 LINE SMOOTH",
"357 679 OFFCURVE",
"417 622 OFFCURVE",
"417 520 CURVE SMOOTH",
"417 180 LINE SMOOTH",
"417 79 OFFCURVE",
"357 22 OFFCURVE",
"268 22 CURVE SMOOTH",
"139 22 LINE"
);
}
);
width = 543;
},
{
layerId = "4F25946F-63AC-42D6-8D55-01CF6A99025B";
paths = (
{
closed = 1;
nodes = (
"332 0 LINE SMOOTH",
"463 0 OFFCURVE",
"544 85 OFFCURVE",
"544 223 CURVE SMOOTH",
"544 477 LINE SMOOTH",
"544 615 OFFCURVE",
"463 700 OFFCURVE",
"332 700 CURVE SMOOTH",
"45 700 LINE",
"45 0 LINE"
);
},
{
closed = 1;
nodes = (
"253 526 LINE",
"288 526 LINE SMOOTH",
"315 526 OFFCURVE",
"332 505 OFFCURVE",
"332 471 CURVE SMOOTH",
"332 229 LINE SMOOTH",
"332 195 OFFCURVE",
"315 174 OFFCURVE",
"288 174 CURVE SMOOTH",
"253 174 LINE"
);
}
);
width = 573;
},
{
associatedMasterId = "262880E7-CFE1-4BDA-902E-E24798F3240A";
layerId = "5FA87B53-3B99-492D-B797-6707203108CA";
name = "DemiBold{119,100}";
paths = (
{
closed = 1;
nodes = (
"302 0 LINE SMOOTH",
"420 0 OFFCURVE",
"495 76 OFFCURVE",
"495 203 CURVE SMOOTH",
"495 497 LINE SMOOTH",
"495 624 OFFCURVE",
"420 700 OFFCURVE",
"302 700 CURVE SMOOTH",
"78 700 LINE",
"78 0 LINE"
);
},
{
closed = 1;
nodes = (
"200 581 LINE",
"279 581 LINE SMOOTH",
"334 581 OFFCURVE",
"371 543 OFFCURVE",
"371 478 CURVE SMOOTH",
"371 226 LINE SMOOTH",
"371 161 OFFCURVE",
"334 124 OFFCURVE",
"279 124 CURVE SMOOTH",
"200 124 LINE"
);
}
);
width = 559;
}
);
unicode = 0044;
},
{
color = 1;
glyphname = E;
lastChange = "2016-10-18 05:48:21 +0000";
layers = (
{
layerId = "262880E7-CFE1-4BDA-902E-E24798F3240A";
paths = (
{
closed = 1;
nodes = (
"438 0 LINE",
"438 21 LINE",
"139 21 LINE",
"139 679 LINE",
"438 679 LINE",
"438 700 LINE",
"117 700 LINE",
"117 0 LINE"
);
},
{
closed = 1;
nodes = (
"341 340 LINE",
"341 361 LINE",
"128 361 LINE",
"128 340 LINE"
);
}
);
width = 486;
},
{
layerId = "4F25946F-63AC-42D6-8D55-01CF6A99025B";
paths = (
{
closed = 1;
nodes = (
"507 0 LINE",
"507 188 LINE",
"253 188 LINE",
"253 512 LINE",
"507 512 LINE",
"507 700 LINE",
"45 700 LINE",
"45 0 LINE"
);
},
{
closed = 1;
nodes = (
"405 266 LINE",
"405 434 LINE",
"167 434 LINE",
"167 266 LINE"
);
}
);
width = 528;
},
{
associatedMasterId = "262880E7-CFE1-4BDA-902E-E24798F3240A";
layerId = "DE3E8A9A-5DAD-493A-9E98-F56387BAB1C1";
name = "DemiBold{119,100}";
paths = (
{
closed = 1;
nodes = (
"494 0 LINE",
"494 111 LINE",
"229 111 LINE",
"229 589 LINE",
"494 589 LINE",
"494 700 LINE",
"105 700 LINE",
"105 0 LINE"
);
},
{
closed = 1;
nodes = (
"394 300 LINE",
"394 400 LINE",
"177 400 LINE",
"177 300 LINE"
);
}
);
width = 559;
}
);
unicode = 0045;
},
{
color = 1;
glyphname = F;
lastChange = "2016-10-18 05:31:25 +0000";
layers = (
{
layerId = "262880E7-CFE1-4BDA-902E-E24798F3240A";
paths = (
{
closed = 1;
nodes = (
"139 0 LINE",
"139 679 LINE",
"438 679 LINE",
"438 700 LINE",
"117 700 LINE",
"117 0 LINE"
);
},
{
closed = 1;
nodes = (
"341 340 LINE",
"341 361 LINE",
"128 361 LINE",
"128 340 LINE"
);
}
);
width = 480;
},
{
layerId = "4F25946F-63AC-42D6-8D55-01CF6A99025B";
paths = (
{
closed = 1;
nodes = (
"253 0 LINE",
"253 512 LINE",
"521 512 LINE",
"521 700 LINE",
"45 700 LINE",
"45 0 LINE"
);
},
{
closed = 1;
nodes = (
"417 266 LINE",
"417 434 LINE",
"166 434 LINE",
"166 266 LINE"
);
}
);
width = 525;
},
{
associatedMasterId = "262880E7-CFE1-4BDA-902E-E24798F3240A";
layerId = "E70C252C-4698-4A26-900C-4F3FD049D2BA";
name = "DemiBold{119,100}";
paths = (
{
closed = 1;
nodes = (
"232 0 LINE",
"232 589 LINE",
"493 589 LINE",
"493 700 LINE",
"106 700 LINE",
"106 0 LINE"
);
},
{
closed = 1;
nodes = (
"393 300 LINE",
"393 400 LINE",
"180 400 LINE",
"180 300 LINE"
);
}
);
width = 544;
}
);
unicode = 0046;
},
{
color = 1;
glyphname = G;
lastChange = "2016-10-18 03:30:19 +0000";
layers = (
{
layerId = "262880E7-CFE1-4BDA-902E-E24798F3240A";
paths = (
{
closed = 1;
nodes = (
"367 -9 OFFCURVE",
"429 51 OFFCURVE",
"429 150 CURVE",
"429 361 LINE",
"268 361 LINE",
"268 340 LINE",
"407 340 LINE",
"407 150 LINE",
"407 63 OFFCURVE",
"355 11 OFFCURVE",
"268 11 CURVE SMOOTH",
"181 11 OFFCURVE",
"129 63 OFFCURVE",
"129 150 CURVE",
"129 550 LINE",
"129 637 OFFCURVE",
"181 690 OFFCURVE",
"268 690 CURVE SMOOTH",
"355 690 OFFCURVE",
"407 637 OFFCURVE",
"407 550 CURVE",
"429 550 LINE",
"429 649 OFFCURVE",
"367 709 OFFCURVE",
"268 709 CURVE SMOOTH",
"169 709 OFFCURVE",
"107 649 OFFCURVE",
"107 550 CURVE",
"107 150 LINE",
"107 51 OFFCURVE",
"169 -9 OFFCURVE",
"268 -9 CURVE SMOOTH"
);
}
);
width = 520;
},
{
layerId = "4F25946F-63AC-42D6-8D55-01CF6A99025B";
paths = (
{
closed = 1;
nodes = (
"434 -10 OFFCURVE",
"536 88 OFFCURVE",
"536 234 CURVE SMOOTH",
"536 400 LINE",
"280 400 LINE",
"280 270 LINE",
"324 270 LINE",
"324 234 LINE SMOOTH",
"324 200 OFFCURVE",
"306 178 OFFCURVE",
"280 178 CURVE SMOOTH",
"254 178 OFFCURVE",
"236 200 OFFCURVE",
"236 234 CURVE SMOOTH",
"236 466 LINE SMOOTH",
"236 500 OFFCURVE",
"254 522 OFFCURVE",
"280 522 CURVE SMOOTH",
"306 522 OFFCURVE",
"324 500 OFFCURVE",
"324 466 CURVE",
"536 466 LINE",
"536 612 OFFCURVE",
"434 710 OFFCURVE",
"280 710 CURVE SMOOTH",
"126 710 OFFCURVE",
"24 612 OFFCURVE",
"24 466 CURVE SMOOTH",
"24 234 LINE SMOOTH",
"24 88 OFFCURVE",
"126 -10 OFFCURVE",
"280 -10 CURVE SMOOTH"
);
}
);
width = 557;
},
{
associatedMasterId = "262880E7-CFE1-4BDA-902E-E24798F3240A";
layerId = "4BB53C67-4989-441E-8A0D-7E4F5FC64094";
name = "Medium {91, 100}";
paths = (
{
closed = 1;
nodes = (
"426 -9 OFFCURVE",
"504 65 OFFCURVE",
"504 182 CURVE",
"504 376 LINE",
"307 376 LINE",
"307 290 LINE",
"410 290 LINE",
"410 182 LINE",
"410 115 OFFCURVE",
"370 74 OFFCURVE",
"307 74 CURVE SMOOTH",
"243 74 OFFCURVE",
"204 115 OFFCURVE",
"204 182 CURVE",
"204 518 LINE",
"204 585 OFFCURVE",
"243 626 OFFCURVE",
"307 626 CURVE SMOOTH",
"370 626 OFFCURVE",
"410 585 OFFCURVE",
"410 518 CURVE",
"504 518 LINE",
"504 635 OFFCURVE",
"426 709 OFFCURVE",
"307 709 CURVE SMOOTH",
"187 709 OFFCURVE",
"110 635 OFFCURVE",
"110 518 CURVE",
"110 182 LINE",
"110 65 OFFCURVE",
"187 -9 OFFCURVE",
"307 -9 CURVE SMOOTH"
);
}
);
width = 602;
}
);
unicode = 0047;
},
{
color = 1;
glyphname = H;
lastChange = "2016-10-18 03:30:19 +0000";
layers = (
{
layerId = "262880E7-CFE1-4BDA-902E-E24798F3240A";
paths = (
{
closed = 1;
nodes = (
"439 0 LINE",
"439 700 LINE",
"417 700 LINE",
"417 0 LINE"
);
},
{
closed = 1;
nodes = (
"139 0 LINE",
"139 700 LINE",
"117 700 LINE",
"117 0 LINE"
);
},
{
closed = 1;
nodes = (
"422 340 LINE",
"422 361 LINE",
"134 361 LINE",
"134 340 LINE"
);
}
);
width = 556;
},
{
layerId = "4F25946F-63AC-42D6-8D55-01CF6A99025B";
paths = (
{
closed = 1;
nodes = (
"553 0 LINE",
"553 700 LINE",
"343 700 LINE",
"343 0 LINE"
);
},
{
closed = 1;
nodes = (
"255 0 LINE",
"255 700 LINE",
"45 700 LINE",
"45 0 LINE"
);
},
{
closed = 1;
nodes = (
"359 246 LINE",
"359 434 LINE",
"239 434 LINE",
"239 246 LINE"
);
}
);
width = 598;
}
);
unicode = 0048;
},
{
color = 1;
glyphname = I;
lastChange = "2016-10-18 03:30:20 +0000";
layers = (
{
layerId = "262880E7-CFE1-4BDA-902E-E24798F3240A";
paths = (
{
closed = 1;
nodes = (
"139 0 LINE",
"139 700 LINE",
"117 700 LINE",
"117 0 LINE"
);
}
);
width = 256;
},
{
layerId = "4F25946F-63AC-42D6-8D55-01CF6A99025B";
paths = (
{
closed = 1;
nodes = (
"247 0 LINE",
"247 700 LINE",
"45 700 LINE",
"45 0 LINE"
);
}
);
width = 292;
}
);
unicode = 0049;
},
{
color = 1;
glyphname = J;
lastChange = "2016-10-18 03:30:20 +0000";
layers = (
{
layerId = "262880E7-CFE1-4BDA-902E-E24798F3240A";
paths = (
{
closed = 1;
nodes = (
"314 -11 OFFCURVE",
"374 50 OFFCURVE",
"374 150 CURVE SMOOTH",
"374 700 LINE",
"352 700 LINE",
"352 150 LINE",
"352 64 OFFCURVE",
"300 11 OFFCURVE",
"216 11 CURVE SMOOTH",
"132 11 OFFCURVE",
"80 64 OFFCURVE",
"80 150 CURVE SMOOTH",
"80 195 LINE",
"58 195 LINE",
"58 150 LINE SMOOTH",
"58 50 OFFCURVE",
"118 -11 OFFCURVE",
"216 -11 CURVE SMOOTH"
);
}
);
width = 486;
},
{
layerId = "4F25946F-63AC-42D6-8D55-01CF6A99025B";
paths = (
{
closed = 1;
nodes = (
"404 -10 OFFCURVE",
"504 88 OFFCURVE",
"504 235 CURVE",
"499 702 LINE",
"287 700 LINE",
"292 233 LINE",
"292 200 OFFCURVE",
"276 178 OFFCURVE",
"253 178 CURVE SMOOTH",
"230 178 OFFCURVE",
"214 200 OFFCURVE",
"214 234 CURVE SMOOTH",
"214 290 LINE",
"2 290 LINE",
"2 234 LINE SMOOTH",
"2 88 OFFCURVE",
"102 -10 OFFCURVE",
"253 -10 CURVE SMOOTH"
);
}
);
width = 537;
}
);
unicode = 004A;
},
{
color = 1;
glyphname = K;
lastChange = "2016-10-18 03:30:19 +0000";
layers = (
{
layerId = "262880E7-CFE1-4BDA-902E-E24798F3240A";
paths = (
{
closed = 1;
nodes = (
"449 0 LINE",
"153 350 LINE",
"449 700 LINE",
"423 700 LINE",
"125 350 LINE",
"423 0 LINE"
);
},
{
closed = 1;
nodes = (
"139 0 LINE",
"139 700 LINE",
"117 700 LINE",
"117 0 LINE"
);
}
);
width = 497;
},
{
layerId = "4F25946F-63AC-42D6-8D55-01CF6A99025B";
paths = (
{
closed = 1;
nodes = (
"576 0 LINE",
"401 350 LINE",
"573 700 LINE",
"323 700 LINE",
"183 350 LINE",
"323 0 LINE"
);
},
{
closed = 1;
nodes = (
"253 0 LINE",
"253 700 LINE",
"45 700 LINE",
"45 0 LINE"
);
}
);
width = 573;
},
{
associatedMasterId = "262880E7-CFE1-4BDA-902E-E24798F3240A";
layerId = "52A147BE-A087-4D72-9A5D-908B44B10E17";
name = "Medium {91, 100}";
paths = (
{
closed = 1;
nodes = (
"524 0 LINE",
"260 350 LINE",
"522 700 LINE",
"407 700 LINE",
"142 350 LINE",
"407 0 LINE"
);
},
{
closed = 1;
nodes = (
"218 0 LINE",
"218 700 LINE",
"124 700 LINE",
"124 0 LINE"
);
}
);
width = 589;
},
{
associatedMasterId = "4F25946F-63AC-42D6-8D55-01CF6A99025B";
layerId = "57219196-2667-4E9B-A894-DD00D1913D76";
name = "Bold Oct 15 16, 02:53";
paths = (
{
closed = 1;
nodes = (
"590 0 LINE",
"413 350 LINE",
"585 700 LINE",
"335 700 LINE",
"193 350 LINE",
"335 0 LINE"
);
},
{
closed = 1;
nodes = (
"265 0 LINE",
"265 700 LINE",
"57 700 LINE",
"57 0 LINE"
);
}
);
width = 593;
}
);
unicode = 004B;
},
{
color = 1;
glyphname = L;
lastChange = "2016-10-18 03:30:20 +0000";
layers = (
{
layerId = "262880E7-CFE1-4BDA-902E-E24798F3240A";
paths = (
{
closed = 1;
nodes = (
"428 0 LINE",
"428 22 LINE",
"139 22 LINE",
"139 700 LINE",
"117 700 LINE",
"117 0 LINE"
);
}
);
width = 470;
},
{
layerId = "4F25946F-63AC-42D6-8D55-01CF6A99025B";
paths = (
{
closed = 1;
nodes = (
"502 0 LINE",
"502 192 LINE",
"253 192 LINE",
"253 700 LINE",
"45 700 LINE",
"45 0 LINE"
);
}
);
width = 506;
}
);
unicode = 004C;
},
{
color = 1;
glyphname = M;
lastChange = "2016-10-18 05:49:46 +0000";
layers = (
{
layerId = "262880E7-CFE1-4BDA-902E-E24798F3240A";
paths = (
{
closed = 1;
nodes = (
"139 0 LINE",
"139 655 LINE",
"296 324 LINE",
"454 655 LINE",
"453 0 LINE",
"475 0 LINE",
"475 700 LINE",
"453 700 LINE",
"296 372 LINE",
"139 700 LINE",
"117 700 LINE",
"117 0 LINE"
);
}
);
width = 592;
},
{
layerId = "4F25946F-63AC-42D6-8D55-01CF6A99025B";
paths = (
{
closed = 1;
nodes = (
"249 0 LINE",
"249 406 LINE",
"339 274 LINE",
"429 406 LINE",
"429 0 LINE",
"641 0 LINE",
"641 698 LINE",
"438 698 LINE",
"339 542 LINE",
"237 702 LINE",
"37 702 LINE",
"37 0 LINE"
);
}
);
width = 678;
},
{
associatedMasterId = "4F25946F-63AC-42D6-8D55-01CF6A99025B";
layerId = "BF6C6FBC-ABCF-4728-B32F-BE7F013B92F9";
name = "Medium {91, 100}";
paths = (
{
closed = 1;
nodes = (
"179 0 LINE",
"181 520 LINE",
"312 265 LINE",
"445 520 LINE",
"445 0 LINE",
"538 0 LINE",
"538 699 LINE",
"447 699 LINE",
"312 437 LINE",
"176 701 LINE",
"87 701 LINE",
"87 0 LINE"
);
}
);
width = 625;
}
);
unicode = 004D;
},
{
color = 1;
glyphname = N;
lastChange = "2016-10-18 03:30:19 +0000";
layers = (
{
layerId = "262880E7-CFE1-4BDA-902E-E24798F3240A";
paths = (
{
closed = 1;
nodes = (
"139 0 LINE",
"139 647 LINE",
"416 0 LINE",
"439 0 LINE",
"439 700 LINE",
"417 700 LINE",
"417 53 LINE",
"140 700 LINE",
"117 700 LINE",
"117 0 LINE"
);
}
);
width = 556;
},
{
layerId = "4F25946F-63AC-42D6-8D55-01CF6A99025B";
paths = (
{
closed = 1;
nodes = (
"245 0 LINE",
"248 269 LINE",
"396 0 LINE",
"560 0 LINE",
"560 700 LINE",
"363 700 LINE",
"363 404 LINE",
"209 700 LINE",
"45 700 LINE",
"45 0 LINE"
);
}
);
width = 605;
},
{
associatedMasterId = "4F25946F-63AC-42D6-8D55-01CF6A99025B";
layerId = "0B1885C1-B30B-43AF-BA88-F41889FEAFD7";
name = "DemiBold{119,100}";
paths = (
{
closed = 1;
nodes = (
"218 0 LINE",
"220 393 LINE",
"427 0 LINE",
"526.006 0 LINE",
"526.006 700 LINE",
"410 700 LINE",
"410 284 LINE",
"199 700 LINE",
"100 700 LINE",
"100 0 LINE"
);
}
);
width = 627;
}
);
unicode = 004E;
},
{
color = 1;
glyphname = O;
lastChange = "2016-10-18 05:57:57 +0000";
layers = (
{
layerId = "262880E7-CFE1-4BDA-902E-E24798F3240A";
paths = (
{
closed = 1;
nodes = (
"363 -9 OFFCURVE",
"435 60 OFFCURVE",
"435 150 CURVE SMOOTH",
"435 550 LINE SMOOTH",
"435 640 OFFCURVE",
"363 709 OFFCURVE",
"270 709 CURVE SMOOTH",
"177 709 OFFCURVE",
"105 640 OFFCURVE",
"105 550 CURVE SMOOTH",
"105 150 LINE SMOOTH",
"105 60 OFFCURVE",
"177 -9 OFFCURVE",
"270 -9 CURVE SMOOTH"
);
},
{
closed = 1;
nodes = (
"187 10 OFFCURVE",
"127 72 OFFCURVE",
"127 150 CURVE SMOOTH",
"127 550 LINE SMOOTH",
"127 629 OFFCURVE",
"189 690 OFFCURVE",
"270 690 CURVE SMOOTH",
"351 690 OFFCURVE",
"413 629 OFFCURVE",
"413 550 CURVE SMOOTH",
"413 150 LINE SMOOTH",
"413 72 OFFCURVE",
"353 10 OFFCURVE",
"270 10 CURVE SMOOTH"
);
}
);
width = 540;
},
{
layerId = "4F25946F-63AC-42D6-8D55-01CF6A99025B";
paths = (
{
closed = 1;
nodes = (
"448 -10 OFFCURVE",
"552 87 OFFCURVE",
"552 233 CURVE SMOOTH",
"552 467 LINE SMOOTH",
"552 613 OFFCURVE",
"448 710 OFFCURVE",
"288 710 CURVE SMOOTH",
"128 710 OFFCURVE",
"24 613 OFFCURVE",
"24 467 CURVE SMOOTH",
"24 233 LINE SMOOTH",
"24 87 OFFCURVE",
"128 -10 OFFCURVE",
"288 -10 CURVE SMOOTH"
);
},
{
closed = 1;
nodes = (
"259 174 OFFCURVE",
"240 194 OFFCURVE",
"240 223 CURVE SMOOTH",
"240 477 LINE SMOOTH",
"240 506 OFFCURVE",
"259 526 OFFCURVE",
"288 526 CURVE SMOOTH",
"317 526 OFFCURVE",
"336 506 OFFCURVE",
"336 477 CURVE SMOOTH",
"336 223 LINE SMOOTH",
"336 194 OFFCURVE",
"317 174 OFFCURVE",
"288 174 CURVE SMOOTH"
);
}
);
width = 576;
}
);
unicode = 004F;
},
{
color = 1;
glyphname = P;
lastChange = "2016-10-18 05:50:31 +0000";
layers = (
{
layerId = "262880E7-CFE1-4BDA-902E-E24798F3240A";
paths = (
{
closed = 1;
nodes = (
"139 0 LINE",
"139 679 LINE",
"263 679 LINE SMOOTH",
"363 679 OFFCURVE",
"424 616 OFFCURVE",
"424 513 CURVE SMOOTH",
"424 409 OFFCURVE",
"363 346 OFFCURVE",
"263 346 CURVE SMOOTH",
"134 346 LINE",
"134 325 LINE",
"263 325 LINE SMOOTH",
"376 325 OFFCURVE",
"446 397 OFFCURVE",
"446 512 CURVE SMOOTH",
"446 629 OFFCURVE",
"376 700 OFFCURVE",
"263 700 CURVE SMOOTH",
"117 700 LINE",
"117 0 LINE"
);
}
);
width = 510;
},
{
layerId = "4F25946F-63AC-42D6-8D55-01CF6A99025B";
paths = (
{
closed = 1;
nodes = (
"257 0 LINE",
"257 512 LINE",
"286 512 LINE SMOOTH",
"315 512 OFFCURVE",
"335 492 OFFCURVE",
"335 462 CURVE SMOOTH",
"335 432 OFFCURVE",
"315 412 OFFCURVE",
"286 412 CURVE SMOOTH",
"241 412 LINE",
"241 233 LINE",
"325 233 LINE SMOOTH",
"458 233 OFFCURVE",
"547 326 OFFCURVE",
"547 465 CURVE SMOOTH",
"547 606 OFFCURVE",
"455 700 OFFCURVE",
"316 700 CURVE SMOOTH",
"45 700 LINE",
"45 0 LINE"
);
}
);
width = 553;
}
);
unicode = 0050;
},
{
color = 1;
glyphname = Q;
lastChange = "2016-10-18 03:30:19 +0000";
layers = (
{
layerId = "262880E7-CFE1-4BDA-902E-E24798F3240A";
paths = (
{
closed = 1;
nodes = (
"355 -11 OFFCURVE",
"427 60 OFFCURVE",
"427 150 CURVE SMOOTH",
"427 550 LINE SMOOTH",
"427 640 OFFCURVE",
"355 711 OFFCURVE",
"266 711 CURVE SMOOTH",
"177 711 OFFCURVE",
"105 640 OFFCURVE",
"105 550 CURVE SMOOTH",
"105 150 LINE SMOOTH",
"105 60 OFFCURVE",
"177 -11 OFFCURVE",
"266 -11 CURVE SMOOTH"
);
},
{
closed = 1;
nodes = (
"444 -41 LINE",
"235 11 LINE",
"230 -7 LINE",
"437 -65 LINE"
);
},
{
closed = 1;
nodes = (
"187 11 OFFCURVE",
"127 72 OFFCURVE",
"127 150 CURVE SMOOTH",
"127 550 LINE SMOOTH",
"127 629 OFFCURVE",
"189 690 OFFCURVE",
"266 690 CURVE SMOOTH",
"343 690 OFFCURVE",
"405 629 OFFCURVE",
"405 550 CURVE SMOOTH",
"405 150 LINE SMOOTH",
"405 72 OFFCURVE",
"345 11 OFFCURVE",
"266 11 CURVE SMOOTH"
);
}
);
width = 533;
},
{
layerId = "4F25946F-63AC-42D6-8D55-01CF6A99025B";
paths = (
{
closed = 1;
nodes = (
"434 -10 OFFCURVE",
"536 87 OFFCURVE",
"536 233 CURVE SMOOTH",
"536 467 LINE SMOOTH",
"536 613 OFFCURVE",
"434 710 OFFCURVE",
"280 710 CURVE SMOOTH",
"126 710 OFFCURVE",
"24 613 OFFCURVE",
"24 467 CURVE SMOOTH",
"24 233 LINE SMOOTH",
"24 87 OFFCURVE",
"126 -10 OFFCURVE",
"280 -10 CURVE SMOOTH"
);
},
{
closed = 1;
nodes = (
"552 113 LINE",
"228 118 LINE",
"228 -6 LINE",
"544 -43 LINE"
);
},
{
closed = 1;
nodes = (
"254 178 OFFCURVE",
"236 196 OFFCURVE",
"236 223 CURVE SMOOTH",
"236 477 LINE SMOOTH",
"236 504 OFFCURVE",
"254 522 OFFCURVE",
"280 522 CURVE SMOOTH",
"306 522 OFFCURVE",
"324 504 OFFCURVE",
"324 477 CURVE SMOOTH",
"324 223 LINE SMOOTH",
"324 196 OFFCURVE",
"306 178 OFFCURVE",
"280 178 CURVE SMOOTH"
);
}
);
width = 574;
}
);
unicode = 0051;
},
{
color = 1;
glyphname = R;
lastChange = "2016-10-18 05:51:38 +0000";
layers = (
{
layerId = "262880E7-CFE1-4BDA-902E-E24798F3240A";
paths = (
{
closed = 1;
nodes = (
"139 0 LINE",
"139 679 LINE",
"266 679 LINE SMOOTH",
"366 679 OFFCURVE",
"427 616 OFFCURVE",
"427 512 CURVE SMOOTH",
"427 408 OFFCURVE",
"366 344 OFFCURVE",
"266 344 CURVE SMOOTH",
"134 344 LINE",
"134 323 LINE",
"266 323 LINE SMOOTH",
"379 323 OFFCURVE",
"449 395 OFFCURVE",
"449 511 CURVE SMOOTH",
"449 628 OFFCURVE",
"379 700 OFFCURVE",
"266 700 CURVE SMOOTH",
"117 700 LINE",
"117 0 LINE"
);
},
{
closed = 1;
nodes = (
"407 0 LINE",
"288 340 LINE",
"268 332 LINE",
"383 0 LINE"
);
}
);
width = 516;
},
{
layerId = "4F25946F-63AC-42D6-8D55-01CF6A99025B";
paths = (
{
closed = 1;
nodes = (
"247 0 LINE",
"247 512 LINE",
"299 512 LINE SMOOTH",
"328 512 OFFCURVE",
"348 492 OFFCURVE",
"348 462 CURVE SMOOTH",
"348 432 OFFCURVE",
"328 412 OFFCURVE",
"299 412 CURVE SMOOTH",
"231 412 LINE",
"231 259 LINE",
"391 259 LINE SMOOTH",
"500 259 OFFCURVE",
"572 343 OFFCURVE",
"572 469 CURVE SMOOTH",
"572 608 OFFCURVE",
"488 700 OFFCURVE",
"361 700 CURVE SMOOTH",
"45 700 LINE",
"45 0 LINE"
);
},
{
closed = 1;
nodes = (
"587 0 LINE",
"414 320 LINE",
"198 320 LINE",
"349 0 LINE"
);
}
);
width = 591;
},
{
associatedMasterId = "4F25946F-63AC-42D6-8D55-01CF6A99025B";
layerId = "226A43B5-5CBD-42C7-8731-3A5BF7E3E8A0";
name = "Medium{91,100}";
paths = (
{
closed = 1;
nodes = (
"168 0 LINE",
"168 616 LINE",
"281 616 LINE SMOOTH",
"352 616 OFFCURVE",
"399 567 OFFCURVE",
"399 493 CURVE SMOOTH",
"399 419 OFFCURVE",
"352 370 OFFCURVE",
"281 370 CURVE SMOOTH",
"158 370 LINE",
"158 284 LINE",
"301 285 LINE SMOOTH",
"410 286 OFFCURVE",
"483 369 OFFCURVE",
"483 492 CURVE SMOOTH",
"483 619 OFFCURVE",
"406 700 OFFCURVE",
"290 700 CURVE SMOOTH",
"77 700 LINE",
"77 0 LINE"
);
},
{
closed = 1;
nodes = (
"457 0 LINE",
"327 332 LINE",
"233 327 LINE",
"351 0 LINE"
);
}
);
width = 533;
}
);
unicode = 0052;
},
{
color = 1;
glyphname = S;
lastChange = "2016-10-18 03:30:19 +0000";
layers = (
{
layerId = "262880E7-CFE1-4BDA-902E-E24798F3240A";
paths = (
{
closed = 1;
nodes = (
"343 -9 OFFCURVE",
"405 50 OFFCURVE",
"405 149 CURVE SMOOTH",
"405 255 OFFCURVE",
"333 306 OFFCURVE",
"250 361 CURVE SMOOTH",
"167 416 OFFCURVE",
"105 459 OFFCURVE",
"105 552 CURVE SMOOTH",
"105 636 OFFCURVE",
"157 690 OFFCURVE",
"241 690 CURVE SMOOTH",
"325 690 OFFCURVE",
"377 637 OFFCURVE",
"377 550 CURVE SMOOTH",
"377 500 LINE",
"399 500 LINE",
"399 550 LINE SMOOTH",
"399 650 OFFCURVE",
"339 709 OFFCURVE",
"241 709 CURVE SMOOTH",
"143 709 OFFCURVE",
"83 649 OFFCURVE",
"83 553 CURVE SMOOTH",
"83 446 OFFCURVE",
"158 394 OFFCURVE",
"236 342 CURVE SMOOTH",
"313 291 OFFCURVE",
"383 244 OFFCURVE",
"383 148 CURVE SMOOTH",
"383 63 OFFCURVE",
"329 11 OFFCURVE",
"242 11 CURVE SMOOTH",
"155 11 OFFCURVE",
"105 64 OFFCURVE",
"105 150 CURVE SMOOTH",
"105 210 LINE",
"85 210 LINE",
"85 150 LINE SMOOTH",
"85 50 OFFCURVE",
"142 -9 OFFCURVE",
"243 -9 CURVE SMOOTH"
);
}
);
width = 485;
},
{
layerId = "4F25946F-63AC-42D6-8D55-01CF6A99025B";
paths = (
{
closed = 1;
nodes = (
"428 -10 OFFCURVE",
"522 74 OFFCURVE",
"522 200 CURVE SMOOTH",
"522 312 OFFCURVE",
"448 381 OFFCURVE",
"335 425 CURVE SMOOTH",
"289 443 OFFCURVE",
"236 456 OFFCURVE",
"236 489 CURVE SMOOTH",
"236 503 OFFCURVE",
"246 518 OFFCURVE",
"270 518 CURVE SMOOTH",
"296 518 OFFCURVE",
"311 501 OFFCURVE",
"311 479 CURVE SMOOTH",
"311 464 LINE",
"523 474 LINE",
"523 479 LINE SMOOTH",
"523 617 OFFCURVE",
"416 710 OFFCURVE",
"264 710 CURVE SMOOTH",
"117 710 OFFCURVE",
"21 624 OFFCURVE",
"21 498 CURVE SMOOTH",
"21 389 OFFCURVE",
"94 318 OFFCURVE",
"208 275 CURVE SMOOTH",
"250 259 OFFCURVE",
"306 245 OFFCURVE",
"306 214 CURVE SMOOTH",
"306 201 OFFCURVE",
"297 182 OFFCURVE",
"271 182 CURVE SMOOTH",
"247 182 OFFCURVE",
"232 199 OFFCURVE",
"232 231 CURVE SMOOTH",
"232 236 LINE",
"9 226 LINE",
"9 221 LINE SMOOTH",
"9 83 OFFCURVE",
"115 -10 OFFCURVE",
"275 -10 CURVE SMOOTH"
);
}
);
width = 536;
}
);
unicode = 0053;
},
{
color = 1;
glyphname = T;
lastChange = "2016-10-18 05:32:22 +0000";
layers = (
{
layerId = "262880E7-CFE1-4BDA-902E-E24798F3240A";
paths = (
{
closed = 1;
nodes = (
"210 0 LINE",
"210 689 LINE",
"188 689 LINE",
"188 0 LINE"
);
},
{
closed = 1;
nodes = (
"364 679 LINE",
"364 700 LINE",
"42 700 LINE",
"42 679 LINE"
);
}
);
width = 406;
},
{
layerId = "4F25946F-63AC-42D6-8D55-01CF6A99025B";
paths = (
{
closed = 1;
nodes = (
"365 0 LINE",
"365 606 LINE",
"153 606 LINE",
"153 0 LINE"
);
},
{
closed = 1;
nodes = (
"513 512 LINE",
"513 700 LINE",
"5 700 LINE",
"5 512 LINE"
);
}
);
width = 518;
}
);
unicode = 0054;
},
{
color = 1;
glyphname = U;
lastChange = "2016-10-18 03:30:19 +0000";
layers = (
{
layerId = "262880E7-CFE1-4BDA-902E-E24798F3240A";
paths = (
{
closed = 1;
nodes = (
"372 -9 OFFCURVE",
"434 50 OFFCURVE",
"434 150 CURVE SMOOTH",
"434 700 LINE",
"412 700 LINE",
"412 150 LINE SMOOTH",
"412 64 OFFCURVE",
"360 11 OFFCURVE",
"273 11 CURVE SMOOTH",
"186 11 OFFCURVE",
"134 64 OFFCURVE",
"134 150 CURVE SMOOTH",
"134 700 LINE",
"112 700 LINE",
"112 150 LINE SMOOTH",
"112 50 OFFCURVE",
"174 -9 OFFCURVE",
"273 -9 CURVE SMOOTH"
);
}
);
width = 546;
},
{
layerId = "4F25946F-63AC-42D6-8D55-01CF6A99025B";
paths = (
{
closed = 1;
nodes = (
"445 -10 OFFCURVE",
"547 88 OFFCURVE",
"547 234 CURVE SMOOTH",
"547 700 LINE",
"335 700 LINE",
"335 234 LINE SMOOTH",
"335 200 OFFCURVE",
"317 178 OFFCURVE",
"291 178 CURVE SMOOTH",
"265 178 OFFCURVE",
"247 200 OFFCURVE",
"247 234 CURVE SMOOTH",
"247 700 LINE",
"35 700 LINE",
"35 234 LINE SMOOTH",
"35 88 OFFCURVE",
"137 -10 OFFCURVE",
"291 -10 CURVE SMOOTH"
);
}
);
width = 582;
}
);
unicode = 0055;
},
{
color = 1;
glyphname = V;
lastChange = "2016-10-18 03:30:19 +0000";
layers = (
{
layerId = "262880E7-CFE1-4BDA-902E-E24798F3240A";
paths = (
{
closed = 1;
nodes = (
"243 0 LINE",
"408 700 LINE",
"386 700 LINE",
"232 40 LINE",
"78 700 LINE",
"56 700 LINE",
"221 0 LINE"
);
}
);
width = 464;
},
{
layerId = "4F25946F-63AC-42D6-8D55-01CF6A99025B";
paths = (
{
closed = 1;
nodes = (
"379 0 LINE",
"549 700 LINE",
"334 700 LINE",
"273 300 LINE",
"212 700 LINE",
"-3 700 LINE",
"167 0 LINE"
);
}
);
width = 546;
}
);
unicode = 0056;
},
{
color = 1;
glyphname = W;
lastChange = "2016-10-18 03:30:20 +0000";
layers = (
{
layerId = "262880E7-CFE1-4BDA-902E-E24798F3240A";
paths = (
{
closed = 1;
nodes = (
"210 0 LINE",
"324 648 LINE",
"438 0 LINE",
"460 0 LINE",
"585 700 LINE",
"563 700 LINE",
"449 52 LINE",
"335 700 LINE",
"313 700 LINE",
"199 52 LINE",
"85 700 LINE",
"63 700 LINE",
"188 0 LINE"
);
}
);
width = 648;
},
{
layerId = "4F25946F-63AC-42D6-8D55-01CF6A99025B";
paths = (
{
closed = 1;
nodes = (
"370 1 LINE",
"406 307 LINE",
"442 1 LINE",
"660 1 LINE",
"814 700 LINE",
"598 700 LINE",
"553 363 LINE",
"511 699 LINE",
"301 699 LINE",
"259 363 LINE",
"214 700 LINE",
"-2 700 LINE",
"152 1 LINE"
);
}
);
width = 812;
}
);
unicode = 0057;
},
{
color = 1;
glyphname = X;
lastChange = "2016-10-18 03:30:20 +0000";
layers = (
{
layerId = "262880E7-CFE1-4BDA-902E-E24798F3240A";
paths = (
{
closed = 1;
nodes = (
"367 700 LINE",
"224 376 LINE",
"81 700 LINE",
"58 700 LINE",
"213 350 LINE",
"58 0 LINE",
"81 0 LINE",
"224 324 LINE",
"367 0 LINE",
"390 0 LINE",
"236 350 LINE",
"390 700 LINE"
);
}
);
width = 448;
},
{
layerId = "4F25946F-63AC-42D6-8D55-01CF6A99025B";
paths = (
{
closed = 1;
nodes = (
"368 700 LINE",
"301 559 LINE",
"234 700 LINE",
"-4 700 LINE",
"184 350 LINE",
"-4 0 LINE",
"234 0 LINE",
"301 141 LINE",
"368 0 LINE",
"606 0 LINE",
"418 350 LINE",
"606 700 LINE"
);
}
);
width = 602;
},
{
associatedMasterId = "4F25946F-63AC-42D6-8D55-01CF6A99025B";
layerId = "A81EC77E-A514-41C1-A690-EF61EA7402F1";
name = "Bold Oct 15 16, 02:50";
paths = (
{
closed = 1;
nodes = (
"4 700 LINE",
"242 700 LINE",
"582 0 LINE",
"344 0 LINE"
);
},
{
closed = 1;
nodes = (
"344 700 LINE",
"582 700 LINE",
"242 0 LINE",
"4 0 LINE"
);
}
);
width = 586;
},
{
associatedMasterId = "262880E7-CFE1-4BDA-902E-E24798F3240A";
layerId = "F2B2385B-1C24-46F1-AB29-8D87B4EEE0C2";
name = "DEMIBOLD{119,100}";
paths = (
{
closed = 1;
nodes = (
"353 700 LINE",
"256 471 LINE",
"160 700 LINE",
"28 700 LINE",
"191 350 LINE",
"28 0 LINE",
"160 0 LINE",
"256 229 LINE",
"353 0 LINE",
"484 0 LINE",
"322 350 LINE",
"484 700 LINE"
);
}
);
width = 536;
},
{
associatedMasterId = "262880E7-CFE1-4BDA-902E-E24798F3240A";
layerId = "077702AC-624F-4016-8C7C-9CDBE6837B88";
name = "Light Oct 16 16, 21:49";
paths = (
{
closed = 1;
nodes = (
"441 700 LINE",
"298 376 LINE",
"155 700 LINE",
"132 700 LINE",
"287 350 LINE",
"132 0 LINE",
"155 0 LINE",
"298 324 LINE",
"441 0 LINE",
"464 0 LINE",
"310 350 LINE",
"464 700 LINE"
);
}
);
width = 596;
}
);
unicode = 0058;
},
{
color = 1;
glyphname = Y;
lastChange = "2016-10-18 03:30:19 +0000";
layers = (
{
layerId = "262880E7-CFE1-4BDA-902E-E24798F3240A";
paths = (
{
closed = 1;
nodes = (
"381 700 LINE",
"356 700 LINE",
"214 379 LINE",
"73 700 LINE",
"47 700 LINE",
"214 328 LINE"
);
},
{
closed = 1;
nodes = (
"225 0 LINE",
"225 350 LINE",
"203 350 LINE",
"203 0 LINE"
);
}
);
width = 428;
},
{
layerId = "4F25946F-63AC-42D6-8D55-01CF6A99025B";
paths = (
{
closed = 1;
nodes = (
"629 700 LINE",
"403 700 LINE",
"316 479 LINE",
"228 700 LINE",
"-8 700 LINE",
"315 12 LINE"
);
},
{
closed = 1;
nodes = (
"423 0 LINE",
"423 350 LINE",
"207 350 LINE",
"207 0 LINE"
);
}
);
width = 621;
}
);
unicode = 0059;
},
{
color = 1;
glyphname = Z;
lastChange = "2016-10-18 05:40:27 +0000";
layers = (
{
layerId = "262880E7-CFE1-4BDA-902E-E24798F3240A";
paths = (
{
closed = 1;
nodes = (
"367 0 LINE",
"367 22 LINE",
"79 22 LINE",
"376 678 LINE",
"376 700 LINE",
"67 700 LINE",
"67 678 LINE",
"353 678 LINE",
"55 22 LINE",
"55 0 LINE"
);
}
);
width = 434;
},
{
layerId = "4F25946F-63AC-42D6-8D55-01CF6A99025B";
paths = (
{
closed = 1;
nodes = (
"483 0 LINE",
"483 188 LINE",
"225 188 LINE",
"483 512 LINE",
"483 700 LINE",
"3 700 LINE",
"3 512 LINE",
"261 512 LINE",
"4 188 LINE",
"4 0 LINE"
);
}
);
width = 490;
},
{
associatedMasterId = "4F25946F-63AC-42D6-8D55-01CF6A99025B";
layerId = "8571AD0C-8F04-4BAF-8376-8975FEBCF70C";
name = "Demibold{119,100}";
paths = (
{
closed = 1;
nodes = (
"433 0 LINE",
"433 111 LINE",
"137 111 LINE",
"439 589 LINE",
"439 700 LINE",
"27 700 LINE",
"27 589 LINE",
"324 589 LINE",
"22 111 LINE",
"22 0 LINE"
);
}
);
width = 464;
}
);
unicode = 005A;
},
{
color = 1;
glyphname = a;
lastChange = "2016-10-18 06:00:46 +0000";
layers = (
{
layerId = "262880E7-CFE1-4BDA-902E-E24798F3240A";
paths = (
{
closed = 1;
nodes = (
"332 -7 OFFCURVE",
"394 54 OFFCURVE",
"394 156 CURVE SMOOTH",
"394 344 LINE SMOOTH",
"394 446 OFFCURVE",
"332 507 OFFCURVE",
"236 507 CURVE SMOOTH",
"139 507 OFFCURVE",
"76 446 OFFCURVE",
"76 346 CURVE SMOOTH",
"76 154 LINE SMOOTH",
"76 54 OFFCURVE",
"139 -7 OFFCURVE",
"236 -7 CURVE SMOOTH"
);
},
{
closed = 1;
nodes = (
"154 14 OFFCURVE",
"98 70 OFFCURVE",
"98 154 CURVE SMOOTH",
"98 346 LINE SMOOTH",
"98 430 OFFCURVE",
"154 486 OFFCURVE",
"237 486 CURVE SMOOTH",
"320 486 OFFCURVE",
"376 430 OFFCURVE",
"376 346 CURVE SMOOTH",
"376 154 LINE SMOOTH",
"376 70 OFFCURVE",
"320 14 OFFCURVE",
"237 14 CURVE SMOOTH"
);
},
{
closed = 1;
nodes = (
"398 0 LINE",
"398 500 LINE",
"376 500 LINE",
"376 0 LINE"
);
}
);
width = 491;
},
{
layerId = "4F25946F-63AC-42D6-8D55-01CF6A99025B";
paths = (
{
closed = 1;
nodes = (
"336 0 OFFCURVE",
"381 109 OFFCURVE",
"381 208 CURVE SMOOTH",
"381 298 LINE",
"376 394 OFFCURVE",
"337 502 OFFCURVE",
"187 502 CURVE SMOOTH",
"75 502 OFFCURVE",
"22 437 OFFCURVE",
"22 346 CURVE SMOOTH",
"22 152 LINE SMOOTH",
"22 61 OFFCURVE",
"75 0 OFFCURVE",
"187 0 CURVE SMOOTH"
);
},
{
closed = 1;
nodes = (
"247 163 OFFCURVE",
"229 181 OFFCURVE",
"229 208 CURVE SMOOTH",
"229 294 LINE SMOOTH",
"229 321 OFFCURVE",
"247 339 OFFCURVE",
"273 339 CURVE SMOOTH",
"299 339 OFFCURVE",
"316 321 OFFCURVE",
"316 294 CURVE SMOOTH",
"316 208 LINE SMOOTH",
"316 181 OFFCURVE",
"299 163 OFFCURVE",
"273 163 CURVE SMOOTH"
);
},
{
closed = 1;
nodes = (
"523 0 LINE",
"523 500 LINE",
"316 500 LINE",
"316 0 LINE"
);
}
);
width = 559;
},
{
associatedMasterId = "4F25946F-63AC-42D6-8D55-01CF6A99025B";
layerId = "47FC566B-2B97-4943-A9EB-638501BAD42D";
name = "DemiBold{119,100}";
paths = (
{
closed = 1;
nodes = (
"356 -3 OFFCURVE",
"419 66 OFFCURVE",
"419 244 CURVE SMOOTH",
"419 255 LINE SMOOTH",
"419 420 OFFCURVE",
"353 504 OFFCURVE",
"224 504 CURVE SMOOTH",
"116 504 OFFCURVE",
"42 445 OFFCURVE",
"42 348 CURVE SMOOTH",
"42 153 LINE SMOOTH",
"42 56 OFFCURVE",
"109 -3 OFFCURVE",
"228 -3 CURVE SMOOTH"
);
},
{
closed = 1;
nodes = (
"199 94 OFFCURVE",
"164 130 OFFCURVE",
"164 183 CURVE SMOOTH",
"164 318 LINE SMOOTH",
"164 371 OFFCURVE",
"199 407 OFFCURVE",
"252 407 CURVE SMOOTH",
"304 407 OFFCURVE",
"339 371 OFFCURVE",
"339 318 CURVE SMOOTH",
"339 183 LINE SMOOTH",
"339 130 OFFCURVE",
"304 94 OFFCURVE",
"252 94 CURVE SMOOTH"
);
},
{
closed = 1;
nodes = (
"460 0 LINE",
"460 500 LINE",
"339 500 LINE",
"339 0 LINE"
);
}
);
width = 516;
visible = 1;
}
);
unicode = 0061;
},
{
color = 1;
glyphname = b;
lastChange = "2016-10-18 06:00:27 +0000";
layers = (
{
layerId = "262880E7-CFE1-4BDA-902E-E24798F3240A";
paths = (
{
closed = 1;
nodes = (
"353 -7 OFFCURVE",
"416 57 OFFCURVE",
"416 154 CURVE SMOOTH",
"416 346 LINE SMOOTH",
"416 443 OFFCURVE",
"353 507 OFFCURVE",
"258 507 CURVE SMOOTH",
"161 507 OFFCURVE",
"96 442 OFFCURVE",
"96 344 CURVE SMOOTH",
"96 156 LINE SMOOTH",
"96 58 OFFCURVE",
"161 -7 OFFCURVE",
"258 -7 CURVE SMOOTH"
);
},
{
closed = 1;
nodes = (
"116 0 LINE",
"116 700 LINE",
"94 700 LINE",
"94 0 LINE"
);
},
{
closed = 1;
nodes = (
"172 14 OFFCURVE",
"116 69 OFFCURVE",
"116 154 CURVE SMOOTH",
"116 346 LINE SMOOTH",
"116 431 OFFCURVE",
"172 486 OFFCURVE",
"255 486 CURVE SMOOTH",
"338 486 OFFCURVE",
"394 431 OFFCURVE",
"394 346 CURVE SMOOTH",
"394 154 LINE SMOOTH",
"394 69 OFFCURVE",
"338 14 OFFCURVE",
"255 14 CURVE SMOOTH"
);
}
);
width = 495;
},
{
layerId = "4F25946F-63AC-42D6-8D55-01CF6A99025B";
paths = (
{
closed = 1;
nodes = (
"474 0 OFFCURVE",
"537 61 OFFCURVE",
"537 152 CURVE SMOOTH",
"537 350 LINE SMOOTH",
"537 441 OFFCURVE",
"488 502 OFFCURVE",
"367 502 CURVE SMOOTH",
"209 502 OFFCURVE",
"182 396 OFFCURVE",
"178 298 CURVE",
"178 195 LINE SMOOTH",
"178 108 OFFCURVE",
"221 0 OFFCURVE",
"365 0 CURVE SMOOTH"
);
},
{
closed = 1;
nodes = (
"243 0 LINE",
"243 700 LINE",
"36 700 LINE",
"36 0 LINE"
);
},
{
closed = 1;
nodes = (
"260 163 OFFCURVE",
"243 181 OFFCURVE",
"243 208 CURVE SMOOTH",
"243 294 LINE SMOOTH",
"243 321 OFFCURVE",
"260 339 OFFCURVE",
"286 339 CURVE SMOOTH",
"312 339 OFFCURVE",
"330 321 OFFCURVE",
"330 294 CURVE SMOOTH",
"330 208 LINE SMOOTH",
"330 181 OFFCURVE",
"312 163 OFFCURVE",
"286 163 CURVE SMOOTH"
);
}
);
width = 558;
}
);
unicode = 0062;
},
{
color = 1;
glyphname = c;
lastChange = "2016-10-18 04:24:03 +0000";
layers = (
{
layerId = "262880E7-CFE1-4BDA-902E-E24798F3240A";
paths = (
{
closed = 1;
nodes = (
"336 -5 OFFCURVE",
"398 54 OFFCURVE",
"398 154 CURVE SMOOTH",
"398 157 LINE",
"376 157 LINE",
"376 154 LINE SMOOTH",
"376 68 OFFCURVE",
"324 15 OFFCURVE",
"237 15 CURVE SMOOTH",
"150 15 OFFCURVE",
"98 68 OFFCURVE",
"98 154 CURVE SMOOTH",
"98 346 LINE SMOOTH",
"98 433 OFFCURVE",
"152 486 OFFCURVE",
"237 486 CURVE SMOOTH",
"322 486 OFFCURVE",
"376 433 OFFCURVE",
"376 346 CURVE SMOOTH",
"376 344 LINE",
"398 344 LINE",
"398 346 LINE SMOOTH",
"398 446 OFFCURVE",
"336 505 OFFCURVE",
"237 505 CURVE SMOOTH",
"138 505 OFFCURVE",
"76 446 OFFCURVE",
"76 346 CURVE SMOOTH",
"76 154 LINE SMOOTH",
"76 54 OFFCURVE",
"138 -5 OFFCURVE",
"237 -5 CURVE SMOOTH"
);
}
);
width = 453;
},
{
layerId = "4F25946F-63AC-42D6-8D55-01CF6A99025B";
paths = (
{
closed = 1;
nodes = (
"413 -3 OFFCURVE",
"515 73 OFFCURVE",
"523 188 CURVE",
"523 230 LINE",
"312 230 LINE",
"312 207 LINE SMOOTH",
"312 182 OFFCURVE",
"294 166 OFFCURVE",
"268 166 CURVE SMOOTH",
"242 166 OFFCURVE",
"225 182 OFFCURVE",
"225 207 CURVE",
"225 297 LINE",
"225 322 OFFCURVE",
"242 338 OFFCURVE",
"268 338 CURVE SMOOTH",
"294 338 OFFCURVE",
"312 322 OFFCURVE",
"312 297 CURVE",
"312 272 LINE",
"523 272 LINE",
"523 325 LINE",
"521 432 OFFCURVE",
"419 503 OFFCURVE",
"267 503 CURVE SMOOTH",
"115 503 OFFCURVE",
"13 432 OFFCURVE",
"13 325 CURVE SMOOTH",
"13 188 LINE SMOOTH",
"13 73 OFFCURVE",
"115 -3 OFFCURVE",
"264 -3 CURVE SMOOTH"
);
}
);
width = 534;
},
{
associatedMasterId = "4F25946F-63AC-42D6-8D55-01CF6A99025B";
layerId = "7B6958F8-F0D4-40F0-82E9-17D44A566858";
name = "DemiBold{119,100}";
paths = (
{
closed = 1;
nodes = (
"377 -4 OFFCURVE",
"461 64 OFFCURVE",
"465 172 CURVE SMOOTH",
"465 196 LINE",
"342 196 LINE",
"342 194 LINE SMOOTH",
"342 141 OFFCURVE",
"308 108 OFFCURVE",
"254 108 CURVE SMOOTH",
"199 108 OFFCURVE",
"166 141 OFFCURVE",
"166 194 CURVE SMOOTH",
"166 307 LINE SMOOTH",
"166 360 OFFCURVE",
"200 394 OFFCURVE",
"254 394 CURVE SMOOTH",
"307 394 OFFCURVE",
"342 360 OFFCURVE",
"342 307 CURVE SMOOTH",
"342 305 LINE",
"465 305 LINE",
"465 335 LINE SMOOTH",
"464 438 OFFCURVE",
"381 504 OFFCURVE",
"253 504 CURVE SMOOTH",
"126 504 OFFCURVE",
"42 438 OFFCURVE",
"42 335 CURVE SMOOTH",
"42 172 LINE SMOOTH",
"42 64 OFFCURVE",
"126 -4 OFFCURVE",
"251 -4 CURVE SMOOTH"
);
}
);
width = 496;
}
);
unicode = 0063;
},
{
color = 1;
glyphname = e;
lastChange = "2016-10-18 06:01:14 +0000";
layers = (
{
layerId = "262880E7-CFE1-4BDA-902E-E24798F3240A";
paths = (
{
closed = 1;
nodes = (
"338 -5 OFFCURVE",
"400 55 OFFCURVE",
"400 155 CURVE SMOOTH",
"400 159 LINE",
"378 159 LINE",
"378 155 LINE SMOOTH",
"378 69 OFFCURVE",
"326 16 OFFCURVE",
"239 16 CURVE SMOOTH",
"152 16 OFFCURVE",
"100 69 OFFCURVE",
"100 155 CURVE SMOOTH",
"100 344 LINE SMOOTH",
"100 431 OFFCURVE",
"154 484 OFFCURVE",
"239 484 CURVE SMOOTH",
"324 484 OFFCURVE",
"378 431 OFFCURVE",
"378 344 CURVE SMOOTH",
"378 261 LINE",
"95 261 LINE",
"95 240 LINE",
"400 240 LINE",
"400 344 LINE SMOOTH",
"400 444 OFFCURVE",
"338 505 OFFCURVE",
"239 505 CURVE SMOOTH",
"140 505 OFFCURVE",
"78 444 OFFCURVE",
"78 344 CURVE SMOOTH",
"78 155 LINE SMOOTH",
"78 55 OFFCURVE",
"140 -5 OFFCURVE",
"239 -5 CURVE SMOOTH"
);
}
);
width = 473;
},
{
layerId = "4F25946F-63AC-42D6-8D55-01CF6A99025B";
paths = (
{
closed = 1;
nodes = (
"413 -6 OFFCURVE",
"515 73 OFFCURVE",
"523 190 CURVE",
"523 205 LINE",
"312 205 LINE",
"312 202 LINE SMOOTH",
"312 179 OFFCURVE",
"294 163 OFFCURVE",
"268 163 CURVE SMOOTH",
"242 163 OFFCURVE",
"225 174 OFFCURVE",
"225 202 CURVE SMOOTH",
"225 291 LINE SMOOTH",
"225 316 OFFCURVE",
"242 332 OFFCURVE",
"268 332 CURVE SMOOTH",
"294 332 OFFCURVE",
"312 316 OFFCURVE",
"312 291 CURVE SMOOTH",
"312 281 LINE",
"214 281 LINE",
"214 234 LINE",
"523 234 LINE",
"523 319 LINE",
"521 429 OFFCURVE",
"419 504 OFFCURVE",
"267 504 CURVE SMOOTH",
"115 504 OFFCURVE",
"13 429 OFFCURVE",
"13 319 CURVE SMOOTH",
"13 190 LINE SMOOTH",
"13 72 OFFCURVE",
"114 -6 OFFCURVE",
"263 -6 CURVE SMOOTH"
);
}
);
width = 535;
},
{
associatedMasterId = "4F25946F-63AC-42D6-8D55-01CF6A99025B";
layerId = "A8631AE8-6F64-4109-B373-5711B024CF55";
name = "DemiBold {119,100}";
paths = (
{
closed = 1;
nodes = (
"385 -4 OFFCURVE",
"472 64 OFFCURVE",
"472 172 CURVE SMOOTH",
"472 185 LINE",
"349 185 LINE",
"349 185 LINE SMOOTH",
"349 132 OFFCURVE",
"315 99 OFFCURVE",
"261 99 CURVE SMOOTH",
"207 99 OFFCURVE",
"173 132 OFFCURVE",
"173 185 CURVE SMOOTH",
"173 316 LINE SMOOTH",
"173 369 OFFCURVE",
"208 403 OFFCURVE",
"261 403 CURVE SMOOTH",
"314 403 OFFCURVE",
"349 369 OFFCURVE",
"349 316 CURVE SMOOTH",
"349 298 LINE",
"165 298 LINE",
"165 215 LINE",
"472 215 LINE",
"472 335 LINE SMOOTH",
"472 438 OFFCURVE",
"388 504 OFFCURVE",
"260 504 CURVE SMOOTH",
"133 504 OFFCURVE",
"50 438 OFFCURVE",
"50 335 CURVE SMOOTH",
"50 172 LINE SMOOTH",
"50 64 OFFCURVE",
"133 -4 OFFCURVE",
"259 -4 CURVE SMOOTH"
);
}
);
width = 521;
visible = 1;
}
);
unicode = 0065;
},
{
color = 1;
glyphname = f;
lastChange = "2016-10-18 04:19:21 +0000";
layers = (
{
layerId = "262880E7-CFE1-4BDA-902E-E24798F3240A";
paths = (
{
closed = 1;
nodes = (
"115 -1 LINE",
"115 550 LINE SMOOTH",
"115 637 OFFCURVE",
"168 690 OFFCURVE",
"254 690 CURVE",
"254 711 LINE",
"154 711 OFFCURVE",
"93 650 OFFCURVE",
"93 550 CURVE SMOOTH",
"93 -1 LINE"
);
},
{
closed = 1;
nodes = (
"224 479 LINE",
"224 500 LINE",
"24 500 LINE",
"24 479 LINE"
);
}
);
width = 238;
},
{
layerId = "4F25946F-63AC-42D6-8D55-01CF6A99025B";
paths = (
{
closed = 1;
nodes = (
"240 8 LINE",
"240 525 LINE",
"240 545 OFFCURVE",
"262 551 OFFCURVE",
"284 551 CURVE",
"284 693 LINE",
"144 700 OFFCURVE",
"55 690 OFFCURVE",
"55 549 CURVE",
"55 8 LINE"
);
},
{
closed = 1;
nodes = (
"302 326 LINE",
"302 500 LINE",
"9 500 LINE",
"9 326 LINE"
);
}
);
width = 303;
}
);
unicode = 0066;
},
{
color = 1;
glyphname = g;
lastChange = "2016-10-18 04:37:56 +0000";
layers = (
{
layerId = "262880E7-CFE1-4BDA-902E-E24798F3240A";
paths = (
{
closed = 1;
nodes = (
"335 -5 OFFCURVE",
"394 56 OFFCURVE",
"394 156 CURVE SMOOTH",
"394 344 LINE SMOOTH",
"394 444 OFFCURVE",
"335 505 OFFCURVE",
"237 505 CURVE SMOOTH",
"139 505 OFFCURVE",
"79 445 OFFCURVE",
"79 346 CURVE SMOOTH",
"79 154 LINE SMOOTH",
"79 55 OFFCURVE",
"139 -5 OFFCURVE",
"238 -5 CURVE"
);
},
{
closed = 1;
nodes = (
"154 17 OFFCURVE",
"101 70 OFFCURVE",
"101 156 CURVE SMOOTH",
"101 344 LINE SMOOTH",
"101 431 OFFCURVE",
"154 484 OFFCURVE",
"240 484 CURVE SMOOTH",
"326 484 OFFCURVE",
"379 431 OFFCURVE",
"379 344 CURVE SMOOTH",
"379 156 LINE SMOOTH",
"379 70 OFFCURVE",
"326 17 OFFCURVE",
"240 17 CURVE SMOOTH"
);
},
{
closed = 1;
nodes = (
"328 -206 OFFCURVE",
"401 -140 OFFCURVE",
"401 0 CURVE SMOOTH",
"401 500 LINE",
"379 500 LINE",
"379 0 LINE SMOOTH",
"379 -126 OFFCURVE",
"313 -185 OFFCURVE",
"194 -181 CURVE",
"194 -202 LINE"
);
}
);
width = 495;
},
{
layerId = "4F25946F-63AC-42D6-8D55-01CF6A99025B";
paths = (
{
closed = 1;
nodes = (
"336 0 OFFCURVE",
"381 109 OFFCURVE",
"381 208 CURVE SMOOTH",
"381 298 LINE",
"376 394 OFFCURVE",
"334 502 OFFCURVE",
"184 502 CURVE SMOOTH",
"72 502 OFFCURVE",
"22 437 OFFCURVE",
"22 346 CURVE SMOOTH",
"22 152 LINE SMOOTH",
"22 61 OFFCURVE",
"75 0 OFFCURVE",
"187 0 CURVE SMOOTH"
);
},
{
closed = 1;
nodes = (
"239 165 OFFCURVE",
"222 181 OFFCURVE",
"222 206 CURVE SMOOTH",
"222 298 LINE SMOOTH",
"222 323 OFFCURVE",
"239 339 OFFCURVE",
"265 339 CURVE SMOOTH",
"291 339 OFFCURVE",
"309 323 OFFCURVE",
"309 298 CURVE SMOOTH",
"309 206 LINE SMOOTH",
"309 181 OFFCURVE",
"291 165 OFFCURVE",
"265 165 CURVE SMOOTH"
);
},
{
closed = 1;
nodes = (
"454 -226 OFFCURVE",
"521 -115 OFFCURVE",
"521 34 CURVE SMOOTH",
"521 500 LINE",
"309 500 LINE",
"309 34 LINE SMOOTH",
"309 -14 OFFCURVE",
"292 -44 OFFCURVE",
"148 -36 CURVE",
"148 -207 LINE"
);
}
);
width = 557;
}
);
unicode = 0067;
},
{
color = 1;
glyphname = h;
lastChange = "2016-10-18 05:20:56 +0000";
layers = (
{
layerId = "262880E7-CFE1-4BDA-902E-E24798F3240A";
paths = (
{
closed = 1;
nodes = (
"416 0 LINE",
"416 346 LINE SMOOTH",
"416 444 OFFCURVE",
"358 504 OFFCURVE",
"263 504 CURVE SMOOTH",
"162 504 OFFCURVE",
"100 446 OFFCURVE",
"100 343 CURVE",
"116 343 LINE",
"116 430 OFFCURVE",
"171 483 OFFCURVE",
"261 483 CURVE SMOOTH",
"343 483 OFFCURVE",
"394 431 OFFCURVE",
"394 345 CURVE SMOOTH",
"394 0 LINE"
);
},
{
closed = 1;
nodes = (
"116 0 LINE",
"116 700 LINE",
"94 700 LINE",
"94 0 LINE"
);
}
);
width = 502;
},
{
layerId = "4F25946F-63AC-42D6-8D55-01CF6A99025B";
paths = (
{
closed = 1;
nodes = (
"538 0 LINE",
"538 350 LINE SMOOTH",
"538 441 OFFCURVE",
"487 510 OFFCURVE",
"371 510 CURVE SMOOTH",
"222 510 OFFCURVE",
"179 396 OFFCURVE",
"179 294 CURVE",
"244 294 LINE",
"244 321 OFFCURVE",
"261 339 OFFCURVE",
"287 339 CURVE SMOOTH",
"313 339 OFFCURVE",
"331 321 OFFCURVE",
"331 294 CURVE SMOOTH",
"331 0 LINE"
);
},
{
closed = 1;
nodes = (
"244 0 LINE",
"244 700 LINE",
"36 700 LINE",
"36 0 LINE"
);
}
);
width = 567;
},
{
associatedMasterId = "4F25946F-63AC-42D6-8D55-01CF6A99025B";
layerId = "6DA8EE20-322F-490D-912C-EA80E03ECB77";
name = "Medium {91, 100}";
paths = (
{
closed = 1;
nodes = (
"453 0 LINE",
"453 348 LINE SMOOTH",
"453 444 OFFCURVE",
"393 507 OFFCURVE",
"285 507 CURVE SMOOTH",
"172 507 OFFCURVE",
"111 437 OFFCURVE",
"111 326 CURVE",
"155 326 LINE",
"155 390 OFFCURVE",
"195 430 OFFCURVE",
"257 430 CURVE SMOOTH",
"320 430 OFFCURVE",
"360 390 OFFCURVE",
"360 326 CURVE SMOOTH",
"360 0 LINE"
);
},
{
closed = 1;
nodes = (
"155 0 LINE",
"155 700 LINE",
"62 700 LINE",
"62 0 LINE"
);
}
);
width = 508;
}
);
unicode = 0068;
},
{
color = 1;
glyphname = i;
lastChange = "2016-10-18 03:30:19 +0000";
layers = (
{
layerId = "262880E7-CFE1-4BDA-902E-E24798F3240A";
paths = (
{
closed = 1;
nodes = (
"116 -1 LINE",
"116 500 LINE",
"94 500 LINE",
"94 -1 LINE"
);
},
{
closed = 1;
nodes = (
"122 669 OFFCURVE",
"136 683 OFFCURVE",
"136 700 CURVE SMOOTH",
"136 716 OFFCURVE",
"122 730 OFFCURVE",
"105 730 CURVE SMOOTH",
"88 730 OFFCURVE",
"74 716 OFFCURVE",
"74 700 CURVE SMOOTH",
"74 683 OFFCURVE",
"88 669 OFFCURVE",
"105 669 CURVE SMOOTH"
);
}
);
width = 210;
},
{
layerId = "4F25946F-63AC-42D6-8D55-01CF6A99025B";
paths = (
{
closed = 1;
nodes = (
"244 0 LINE",
"244 500 LINE",
"36 500 LINE",
"36 0 LINE"
);
},
{
closed = 1;
nodes = (
"201 547 OFFCURVE",
"254 591 OFFCURVE",
"254 656 CURVE",
"254 715 OFFCURVE",
"201 763 OFFCURVE",
"140 763 CURVE SMOOTH",
"79 763 OFFCURVE",
"26 715 OFFCURVE",
"26 656 CURVE SMOOTH",
"26 595 OFFCURVE",
"77 547 OFFCURVE",
"140 547 CURVE SMOOTH"
);
}
);
width = 280;
}
);
unicode = 0069;
},
{
color = 1;
glyphname = j;
lastChange = "2016-10-18 03:30:19 +0000";
layers = (
{
layerId = "262880E7-CFE1-4BDA-902E-E24798F3240A";
paths = (
{
closed = 1;
nodes = (
"64 -211 OFFCURVE",
"116 -159 OFFCURVE",
"116 -74 CURVE SMOOTH",
"116 500 LINE",
"94 500 LINE",
"94 -74 LINE SMOOTH",
"94 -146 OFFCURVE",
"51 -190 OFFCURVE",
"-20 -190 CURVE",
"-20 -211 LINE"
);
},
{
closed = 1;
nodes = (
"124 669 OFFCURVE",
"136 681 OFFCURVE",
"136 700 CURVE SMOOTH",
"136 719 OFFCURVE",
"124 730 OFFCURVE",
"105 730 CURVE SMOOTH",
"86 730 OFFCURVE",
"74 719 OFFCURVE",
"74 700 CURVE SMOOTH",
"74 681 OFFCURVE",
"86 669 OFFCURVE",
"105 669 CURVE SMOOTH"
);
}
);
width = 210;
},
{
layerId = "4F25946F-63AC-42D6-8D55-01CF6A99025B";
paths = (
{
closed = 1;
nodes = (
"132 -236 OFFCURVE",
"245 -200 OFFCURVE",
"244 -39 CURVE",
"244 500 LINE",
"36 500 LINE",
"36 -8 LINE",
"36 -40 OFFCURVE",
"-18 -39 OFFCURVE",
"-51 -26 CURVE",
"-61 -201 LINE"
);
},
{
closed = 1;
nodes = (
"202 547 OFFCURVE",
"254 595 OFFCURVE",
"254 656 CURVE",
"254 715 OFFCURVE",
"202 763 OFFCURVE",
"140 763 CURVE SMOOTH",
"79 763 OFFCURVE",
"26 715 OFFCURVE",
"26 656 CURVE SMOOTH",
"26 595 OFFCURVE",
"77 547 OFFCURVE",
"140 547 CURVE SMOOTH"
);
}
);
width = 280;
}
);
unicode = 006A;
},
{
color = 1;
glyphname = k;
lastChange = "2016-10-18 03:30:19 +0000";
layers = (
{
layerId = "262880E7-CFE1-4BDA-902E-E24798F3240A";
paths = (
{
closed = 1;
nodes = (
"373 0 LINE",
"127 250 LINE",
"375 500 LINE",
"344 500 LINE",
"95 250 LINE",
"342 0 LINE"
);
},
{
closed = 1;
nodes = (
"115 1 LINE",
"116 700 LINE",
"94 700 LINE",
"93 1 LINE"
);
}
);
width = 402;
},
{
layerId = "4F25946F-63AC-42D6-8D55-01CF6A99025B";
paths = (
{
closed = 1;
nodes = (
"546 0 LINE",
"364 250 LINE",
"556 500 LINE",
"324 500 LINE",
"180 256 LINE",
"310 0 LINE"
);
},
{
closed = 1;
nodes = (
"224 0 LINE",
"225 700 LINE",
"37 700 LINE",
"36 0 LINE"
);
}
);
width = 542;
},
{
associatedMasterId = "4F25946F-63AC-42D6-8D55-01CF6A99025B";
layerId = "67D1648E-BAA1-4D62-B90C-A94E0FCB7E5A";
name = "DemiBold{119,100}";
paths = (
{
closed = 1;
nodes = (
"471 0 LINE",
"269 250 LINE",
"486 500 LINE",
"336 500 LINE",
"128 250 LINE",
"320 0 LINE"
);
},
{
closed = 1;
nodes = (
"176 0 LINE",
"177 700 LINE",
"56 700 LINE",
"55 0 LINE"
);
}
);
width = 478;
}
);
unicode = 006B;
},
{
color = 1;
glyphname = l;
lastChange = "2016-10-18 03:30:19 +0000";
layers = (
{
layerId = "262880E7-CFE1-4BDA-902E-E24798F3240A";
paths = (
{
closed = 1;
nodes = (
"116 -1 LINE",
"116 700 LINE",
"94 700 LINE",
"94 -1 LINE"
);
}
);
width = 210;
},
{
layerId = "4F25946F-63AC-42D6-8D55-01CF6A99025B";
paths = (
{
closed = 1;
nodes = (
"244 0 LINE",
"244 700 LINE",
"36 700 LINE",
"36 0 LINE"
);
}
);
width = 280;
}
);
unicode = 006C;
},
{
color = 1;
glyphname = m;
lastChange = "2016-10-18 04:32:53 +0000";
layers = (
{
layerId = "262880E7-CFE1-4BDA-902E-E24798F3240A";
paths = (
{
closed = 1;
nodes = (
"116 0 LINE",
"116 500 LINE",
"94 500 LINE",
"94 0 LINE"
);
},
{
closed = 1;
nodes = (
"406 0 LINE",
"406 345 LINE",
"406 445 OFFCURVE",
"345 506 OFFCURVE",
"251 506 CURVE SMOOTH",
"156 506 OFFCURVE",
"101 445 OFFCURVE",
"101 345 CURVE",
"116 345 LINE",
"116 432 OFFCURVE",
"167 485 OFFCURVE",
"250 485 CURVE SMOOTH",
"333 485 OFFCURVE",
"384 432 OFFCURVE",
"384 345 CURVE",
"384 0 LINE"
);
},
{
closed = 1;
nodes = (
"696 0 LINE",
"696 345 LINE SMOOTH",
"696 445 OFFCURVE",
"635 506 OFFCURVE",
"541 506 CURVE SMOOTH",
"446 506 OFFCURVE",
"391 445 OFFCURVE",
"391 345 CURVE",
"406 345 LINE",
"406 432 OFFCURVE",
"457 485 OFFCURVE",
"540 485 CURVE SMOOTH",
"623 485 OFFCURVE",
"674 432 OFFCURVE",
"674 345 CURVE SMOOTH",
"674 0 LINE"
);
}
);
width = 782;
},
{
layerId = "4F25946F-63AC-42D6-8D55-01CF6A99025B";
paths = (
{
closed = 1;
nodes = (
"244 0 LINE",
"244 500 LINE",
"36 500 LINE",
"36 0 LINE"
);
},
{
closed = 1;
nodes = (
"538 0 LINE",
"538 350 LINE SMOOTH",
"538 441 OFFCURVE",
"493 502 OFFCURVE",
"376 502 CURVE",
"228 502 OFFCURVE",
"179 387 OFFCURVE",
"179 286 CURVE",
"244 294 LINE",
"244 321 OFFCURVE",
"261 339 OFFCURVE",
"287 339 CURVE SMOOTH",
"313 339 OFFCURVE",
"331 321 OFFCURVE",
"331 294 CURVE SMOOTH",
"331 0 LINE"
);
},
{
closed = 1;
nodes = (
"832 0 LINE",
"832 350 LINE SMOOTH",
"832 441 OFFCURVE",
"784 502 OFFCURVE",
"666 502 CURVE",
"522 502 OFFCURVE",
"473 387 OFFCURVE",
"473 286 CURVE",
"538 294 LINE",
"538 321 OFFCURVE",
"555 339 OFFCURVE",
"581 339 CURVE SMOOTH",
"607 339 OFFCURVE",
"625 321 OFFCURVE",
"625 294 CURVE SMOOTH",
"625 0 LINE"
);
}
);
width = 861;
},
{
associatedMasterId = "4F25946F-63AC-42D6-8D55-01CF6A99025B";
layerId = "F5ED04A7-6D5C-4CB3-8E75-4B337E8B4478";
name = "Medium {91, 100}";
paths = (
{
closed = 1;
nodes = (
"154 0 LINE",
"154 500 LINE",
"62 500 LINE",
"62 0 LINE"
);
},
{
closed = 1;
nodes = (
"438 0 LINE",
"438 350 LINE SMOOTH",
"438 447 OFFCURVE",
"387 510 OFFCURVE",
"283 510 CURVE SMOOTH",
"174 510 OFFCURVE",
"116 440 OFFCURVE",
"116 336 CURVE",
"154 336 LINE",
"154 396 OFFCURVE",
"191 433 OFFCURVE",
"250 433 CURVE SMOOTH",
"309 433 OFFCURVE",
"346 396 OFFCURVE",
"346 336 CURVE SMOOTH",
"346 0 LINE"
);
},
{
closed = 1;
nodes = (
"722 0 LINE",
"722 350 LINE SMOOTH",
"722 447 OFFCURVE",
"671 510 OFFCURVE",
"567 510 CURVE SMOOTH",
"458 510 OFFCURVE",
"389 440 OFFCURVE",
"389 336 CURVE",
"438 336 LINE",
"438 396 OFFCURVE",
"475 433 OFFCURVE",
"534 433 CURVE SMOOTH",
"593 433 OFFCURVE",
"630 396 OFFCURVE",
"630 336 CURVE SMOOTH",
"630 0 LINE"
);
}
);
width = 793;
}
);
unicode = 006D;
},
{
color = 1;
glyphname = n;
lastChange = "2016-10-18 05:20:07 +0000";
layers = (
{
layerId = "262880E7-CFE1-4BDA-902E-E24798F3240A";
paths = (
{
closed = 1;
nodes = (
"407 0 LINE",
"407 346 LINE SMOOTH",
"407 444 OFFCURVE",
"349 504 OFFCURVE",
"254 504 CURVE SMOOTH",
"153 504 OFFCURVE",
"91 446 OFFCURVE",
"91 343 CURVE",
"107 343 LINE",
"107 430 OFFCURVE",
"162 483 OFFCURVE",
"252 483 CURVE SMOOTH",
"334 483 OFFCURVE",
"385 431 OFFCURVE",
"385 345 CURVE SMOOTH",
"385 0 LINE"
);
},
{
closed = 1;
nodes = (
"107 0 LINE",
"107 496 LINE",
"85 496 LINE",
"85 0 LINE"
);
}
);
width = 483;
},
{
layerId = "4F25946F-63AC-42D6-8D55-01CF6A99025B";
paths = (
{
closed = 1;
nodes = (
"538 0 LINE",
"538 350 LINE SMOOTH",
"538 441 OFFCURVE",
"493 502 OFFCURVE",
"376 502 CURVE",
"228 502 OFFCURVE",
"179 387 OFFCURVE",
"179 286 CURVE",
"244 294 LINE",
"244 321 OFFCURVE",
"261 339 OFFCURVE",
"287 339 CURVE SMOOTH",
"313 339 OFFCURVE",
"331 321 OFFCURVE",
"331 294 CURVE SMOOTH",
"331 0 LINE"
);
},
{
closed = 1;
nodes = (
"244 0 LINE",
"244 500 LINE",
"36 500 LINE",
"36 0 LINE"
);
}
);
width = 567;
},
{
associatedMasterId = "4F25946F-63AC-42D6-8D55-01CF6A99025B";
layerId = "48EED9EC-BBC9-457D-A249-2E4341C899C3";
name = "Medium {91, 100}";
paths = (
{
closed = 1;
nodes = (
"443 0 LINE",
"443 346 LINE SMOOTH",
"443 443 OFFCURVE",
"382 506 OFFCURVE",
"278 506 CURVE SMOOTH",
"160 506 OFFCURVE",
"92 425 OFFCURVE",
"92 325 CURVE",
"145 325 LINE",
"145 389 OFFCURVE",
"184 429 OFFCURVE",
"247 429 CURVE SMOOTH",
"311 429 OFFCURVE",
"350 389 OFFCURVE",
"350 325 CURVE SMOOTH",
"350 0 LINE"
);
},
{
closed = 1;
nodes = (
"145 0 LINE",
"145 498 LINE",
"52 498 LINE",
"52 0 LINE"
);
}
);
width = 485;
}
);
unicode = 006E;
},
{
color = 1;
glyphname = o;
lastChange = "2016-10-18 06:01:43 +0000";
layers = (
{
layerId = "262880E7-CFE1-4BDA-902E-E24798F3240A";
paths = (
{
closed = 1;
nodes = (
"339 -5 OFFCURVE",
"400 56 OFFCURVE",
"400 156 CURVE SMOOTH",
"400 344 LINE SMOOTH",
"400 444 OFFCURVE",
"339 505 OFFCURVE",
"239 505 CURVE SMOOTH",
"139 505 OFFCURVE",
"78 444 OFFCURVE",
"78 344 CURVE SMOOTH",
"78 156 LINE SMOOTH",
"78 56 OFFCURVE",
"139 -5 OFFCURVE",
"239 -5 CURVE SMOOTH"
);
},
{
closed = 1;
nodes = (
"153 16 OFFCURVE",
"100 70 OFFCURVE",
"100 156 CURVE SMOOTH",
"100 344 LINE SMOOTH",
"100 431 OFFCURVE",
"153 484 OFFCURVE",
"239 484 CURVE SMOOTH",
"325 484 OFFCURVE",
"378 431 OFFCURVE",
"378 344 CURVE SMOOTH",
"378 156 LINE SMOOTH",
"378 70 OFFCURVE",
"325 16 OFFCURVE",
"239 16 CURVE SMOOTH"
);
}
);
width = 478;
},
{
layerId = "4F25946F-63AC-42D6-8D55-01CF6A99025B";
paths = (
{
closed = 1;
nodes = (
"413 -3 OFFCURVE",
"515 73 OFFCURVE",
"523 188 CURVE",
"523 325 LINE",
"521 432 OFFCURVE",
"419 503 OFFCURVE",
"267 503 CURVE SMOOTH",
"115 503 OFFCURVE",
"13 432 OFFCURVE",
"13 325 CURVE SMOOTH",
"13 188 LINE SMOOTH",
"13 73 OFFCURVE",
"115 -3 OFFCURVE",
"264 -3 CURVE SMOOTH"
);
},
{
closed = 1;
nodes = (
"242 166 OFFCURVE",
"225 182 OFFCURVE",
"225 207 CURVE SMOOTH",
"225 297 LINE SMOOTH",
"225 322 OFFCURVE",
"242 338 OFFCURVE",
"268 338 CURVE SMOOTH",
"294 338 OFFCURVE",
"312 322 OFFCURVE",
"312 297 CURVE SMOOTH",
"312 207 LINE SMOOTH",
"312 182 OFFCURVE",
"294 166 OFFCURVE",
"268 166 CURVE SMOOTH"
);
}
);
width = 535;
}
);
unicode = 006F;
},
{
color = 1;
glyphname = p;
lastChange = "2016-10-18 03:30:20 +0000";
layers = (
{
layerId = "262880E7-CFE1-4BDA-902E-E24798F3240A";
paths = (
{
closed = 1;
nodes = (
"356 -7 OFFCURVE",
"416 54 OFFCURVE",
"416 154 CURVE SMOOTH",
"416 346 LINE SMOOTH",
"416 446 OFFCURVE",
"356 507 OFFCURVE",
"258 507 CURVE SMOOTH",
"160 507 OFFCURVE",
"96 444 OFFCURVE",
"96 344 CURVE SMOOTH",
"96 156 LINE SMOOTH",
"96 56 OFFCURVE",
"160 -7 OFFCURVE",
"258 -7 CURVE SMOOTH"
);
},
{
closed = 1;
nodes = (
"116 -200 LINE",
"116 500 LINE",
"94 500 LINE",
"94 -200 LINE"
);
},
{
closed = 1;
nodes = (
"169 14 OFFCURVE",
"116 67 OFFCURVE",
"116 154 CURVE SMOOTH",
"116 346 LINE SMOOTH",
"116 432 OFFCURVE",
"169 485 OFFCURVE",
"255 485 CURVE SMOOTH",
"341 485 OFFCURVE",
"394 432 OFFCURVE",
"394 346 CURVE SMOOTH",
"394 154 LINE SMOOTH",
"394 67 OFFCURVE",
"341 14 OFFCURVE",
"255 14 CURVE SMOOTH"
);
}
);
width = 495;
},
{
layerId = "4F25946F-63AC-42D6-8D55-01CF6A99025B";
paths = (
{
closed = 1;
nodes = (
"475 0 OFFCURVE",
"537 61 OFFCURVE",
"537 152 CURVE SMOOTH",
"537 350 LINE SMOOTH",
"537 441 OFFCURVE",
"492 502 OFFCURVE",
"371 502 CURVE SMOOTH",
"213 502 OFFCURVE",
"182 396 OFFCURVE",
"178 298 CURVE",
"178 208 LINE SMOOTH",
"178 118 OFFCURVE",
"222 0 OFFCURVE",
"369 0 CURVE SMOOTH"
);
},
{
closed = 1;
nodes = (
"244 -200 LINE",
"244 502 LINE",
"36 502 LINE",
"36 -200 LINE"
);
},
{
closed = 1;
nodes = (
"260 163 OFFCURVE",
"243 181 OFFCURVE",
"243 208 CURVE SMOOTH",
"243 294 LINE SMOOTH",
"243 321 OFFCURVE",
"260 339 OFFCURVE",
"286 339 CURVE SMOOTH",
"312 339 OFFCURVE",
"330 321 OFFCURVE",
"330 294 CURVE SMOOTH",
"330 208 LINE SMOOTH",
"330 181 OFFCURVE",
"312 163 OFFCURVE",
"286 163 CURVE SMOOTH"
);
}
);
width = 558;
}
);
unicode = 0070;
},
{
color = 1;
glyphname = r;
lastChange = "2016-10-18 05:15:00 +0000";
layers = (
{
layerId = "262880E7-CFE1-4BDA-902E-E24798F3240A";
paths = (
{
closed = 1;
nodes = (
"116 331 LINE",
"116 418 OFFCURVE",
"166 483 OFFCURVE",
"248 483 CURVE SMOOTH",
"258 483 OFFCURVE",
"275 479 OFFCURVE",
"284 475 CURVE",
"301 488 LINE",
"287 496 OFFCURVE",
"267 502 OFFCURVE",
"248 502 CURVE SMOOTH",
"153 502 OFFCURVE",
"100 429 OFFCURVE",
"100 331 CURVE"
);
},
{
closed = 1;
nodes = (
"116 -1 LINE",
"116 500 LINE",
"94 500 LINE",
"94 -1 LINE"
);
}
);
width = 321;
},
{
layerId = "4F25946F-63AC-42D6-8D55-01CF6A99025B";
paths = (
{
closed = 1;
nodes = (
"244 248 LINE",
"244 282 OFFCURVE",
"284 299 OFFCURVE",
"316 299 CURVE SMOOTH",
"339 299 OFFCURVE",
"373 290 OFFCURVE",
"378 281 CURVE",
"420 464 LINE",
"417 483 OFFCURVE",
"377 499 OFFCURVE",
"335 499 CURVE SMOOTH",
"212 499 OFFCURVE",
"180 364 OFFCURVE",
"180 248 CURVE"
);
},
{
closed = 1;
nodes = (
"244 0 LINE",
"244 500 LINE",
"36 500 LINE",
"36 0 LINE"
);
}
);
width = 415;
},
{
associatedMasterId = "262880E7-CFE1-4BDA-902E-E24798F3240A";
layerId = "42CC11FC-6CFD-42F7-A362-E84ACC39CCA1";
name = "Medium{91,100}";
paths = (
{
closed = 1;
nodes = (
"191 307 LINE",
"191 374 OFFCURVE",
"237 420 OFFCURVE",
"302 420 CURVE SMOOTH",
"315 420 OFFCURVE",
"339 415 OFFCURVE",
"346 409 CURVE",
"373 479 LINE",
"363 492 OFFCURVE",
"341 503 OFFCURVE",
"313 503 CURVE SMOOTH",
"210 503 OFFCURVE",
"137 411 OFFCURVE",
"137 307 CURVE"
);
},
{
closed = 1;
nodes = (
"191 -1 LINE",
"191 500 LINE",
"99 500 LINE",
"99 -1 LINE"
);
}
);
width = 405;
}
);
unicode = 0072;
},
{
color = 1;
glyphname = s;
lastChange = "2016-10-18 05:44:42 +0000";
layers = (
{
layerId = "262880E7-CFE1-4BDA-902E-E24798F3240A";
paths = (
{
closed = 1;
nodes = (
"283 -4 OFFCURVE",
"349 49 OFFCURVE",
"349 126 CURVE SMOOTH",
"349 214 OFFCURVE",
"265 237 OFFCURVE",
"185 265 CURVE SMOOTH",
"96 296 OFFCURVE",
"47 311 OFFCURVE",
"47 378 CURVE SMOOTH",
"47 442 OFFCURVE",
"103 484 OFFCURVE",
"186 484 CURVE SMOOTH",
"269 484 OFFCURVE",
"326 438 OFFCURVE",
"326 369 CURVE SMOOTH",
"326 368 LINE",
"347 368 LINE",
"347 369 LINE SMOOTH",
"347 449 OFFCURVE",
"283 504 OFFCURVE",
"186 504 CURVE SMOOTH",
"89 504 OFFCURVE",
"25 453 OFFCURVE",
"25 378 CURVE SMOOTH",
"25 290 OFFCURVE",
"96 271 OFFCURVE",
"181 241 CURVE SMOOTH",
"257 214 OFFCURVE",
"327 196 OFFCURVE",
"327 126 CURVE SMOOTH",
"327 61 OFFCURVE",
"270 17 OFFCURVE",
"184 17 CURVE SMOOTH",
"101 17 OFFCURVE",
"45 61 OFFCURVE",
"45 126 CURVE SMOOTH",
"45 127 LINE",
"23 127 LINE",
"23 126 LINE SMOOTH",
"23 49 OFFCURVE",
"87 -4 OFFCURVE",
"184 -4 CURVE SMOOTH"
);
}
);
width = 372;
},
{
layerId = "4F25946F-63AC-42D6-8D55-01CF6A99025B";
paths = (
{
closed = 1;
nodes = (
"396 -10 OFFCURVE",
"482 50 OFFCURVE",
"482 151 CURVE SMOOTH",
"482 218 OFFCURVE",
"432 272 OFFCURVE",
"346 296 CURVE SMOOTH",
"286 313 OFFCURVE",
"210 318 OFFCURVE",
"210 351 CURVE SMOOTH",
"210 364 OFFCURVE",
"223 378 OFFCURVE",
"243 378 CURVE SMOOTH",
"263 378 OFFCURVE",
"279 364 OFFCURVE",
"279 341 CURVE",
"280 331 LINE",
"474 331 LINE",
"474 341 LINE",
"470 447 OFFCURVE",
"383 510 OFFCURVE",
"239 510 CURVE SMOOTH",
"93 510 OFFCURVE",
"7 452 OFFCURVE",
"7 353 CURVE SMOOTH",
"7 287 OFFCURVE",
"58 233 OFFCURVE",
"145 208 CURVE SMOOTH",
"201 192 OFFCURVE",
"273 187 OFFCURVE",
"273 149 CURVE SMOOTH",
"273 136 OFFCURVE",
"265 123 OFFCURVE",
"243 123 CURVE SMOOTH",
"224 123 OFFCURVE",
"209 133 OFFCURVE",
"205 155 CURVE SMOOTH",
"202 172 LINE",
"6 172 LINE",
"6 162 LINE",
"6 54 OFFCURVE",
"96 -10 OFFCURVE",
"249 -10 CURVE SMOOTH"
);
}
);
width = 486;
},
{
associatedMasterId = "262880E7-CFE1-4BDA-902E-E24798F3240A";
layerId = "677A5083-0B4E-4805-9AE1-F115960A3564";
name = "Semi Bold{101, 100}";
paths = (
{
closed = 1;
nodes = (
"365 -10 OFFCURVE",
"436 48 OFFCURVE",
"436 133 CURVE SMOOTH",
"436 201 OFFCURVE",
"390 252 OFFCURVE",
"297 286 CURVE SMOOTH",
"206 319 OFFCURVE",
"170 333 OFFCURVE",
"170 369 CURVE SMOOTH",
"170 401 OFFCURVE",
"198 421 OFFCURVE",
"244 421 CURVE SMOOTH",
"294 421 OFFCURVE",
"324 397 OFFCURVE",
"324 358 CURVE SMOOTH",
"324 352 LINE",
"431 352 LINE",
"431 358 LINE SMOOTH",
"431 452 OFFCURVE",
"360 510 OFFCURVE",
"246 510 CURVE SMOOTH",
"131 510 OFFCURVE",
"61 451 OFFCURVE",
"61 369 CURVE SMOOTH",
"61 295 OFFCURVE",
"117 248 OFFCURVE",
"197 219 CURVE SMOOTH",
"282 188 OFFCURVE",
"323 173 OFFCURVE",
"323 135 CURVE SMOOTH",
"323 103 OFFCURVE",
"293 78 OFFCURVE",
"246 78 CURVE SMOOTH",
"198 78 OFFCURVE",
"169 103 OFFCURVE",
"169 137 CURVE SMOOTH",
"169 146 LINE",
"59 146 LINE",
"59 141 LINE SMOOTH",
"59 47 OFFCURVE",
"133 -10 OFFCURVE",
"248 -10 CURVE SMOOTH"
);
}
);
width = 494;
}
);
unicode = 0073;
},
{
color = 1;
glyphname = t;
lastChange = "2016-10-18 03:30:19 +0000";
layers = (
{
layerId = "262880E7-CFE1-4BDA-902E-E24798F3240A";
paths = (
{
closed = 1;
nodes = (
"246 2 LINE",
"246 24 LINE",
"222 24 LINE SMOOTH",
"141 24 OFFCURVE",
"118 59 OFFCURVE",
"118 155 CURVE SMOOTH",
"118 479 LINE",
"232 479 LINE",
"232 500 LINE",
"118 500 LINE",
"118 610 LINE",
"96 610 LINE",
"96 500 LINE",
"32 500 LINE",
"32 479 LINE",
"96 479 LINE",
"96 155 LINE SMOOTH",
"96 45 OFFCURVE",
"128 2 OFFCURVE",
"222 2 CURVE SMOOTH"
);
}
);
width = 273;
},
{
layerId = "4F25946F-63AC-42D6-8D55-01CF6A99025B";
paths = (
{
closed = 1;
nodes = (
"301 1 LINE",
"307 181 LINE",
"304 181 LINE",
"266 177 OFFCURVE",
"244 172 OFFCURVE",
"244 203 CURVE SMOOTH",
"244 326 LINE",
"324 326 LINE",
"324 500 LINE",
"244 500 LINE",
"244 700 LINE",
"50 700 LINE",
"50 500 LINE",
"6 500 LINE",
"6 326 LINE",
"50 326 LINE",
"50 163 LINE SMOOTH",
"50 3 OFFCURVE",
"113 -24 OFFCURVE",
"295 1 CURVE"
);
}
);
width = 339;
}
);
unicode = 0074;
},
{
color = 1;
glyphname = u;
lastChange = "2016-10-18 05:22:21 +0000";
layers = (
{
layerId = "262880E7-CFE1-4BDA-902E-E24798F3240A";
paths = (
{
closed = 1;
nodes = (
"344 -3 OFFCURVE",
"404 57 OFFCURVE",
"404 157 CURVE",
"386 157 LINE",
"386 70 OFFCURVE",
"331 17 OFFCURVE",
"244 17 CURVE SMOOTH",
"159 17 OFFCURVE",
"108 67 OFFCURVE",
"108 154 CURVE SMOOTH",
"108 500 LINE",
"86 500 LINE",
"86 153 LINE SMOOTH",
"86 50 OFFCURVE",
"144 -3 OFFCURVE",
"240 -3 CURVE SMOOTH"
);
},
{
closed = 1;
nodes = (
"408 0 LINE",
"408 500 LINE",
"386 500 LINE",
"386 0 LINE"
);
}
);
width = 502;
},
{
layerId = "4F25946F-63AC-42D6-8D55-01CF6A99025B";
paths = (
{
closed = 1;
nodes = (
"343 -2 OFFCURVE",
"390 96 OFFCURVE",
"390 196 CURVE",
"325 188 LINE",
"325 165 OFFCURVE",
"307 150 OFFCURVE",
"281 150 CURVE SMOOTH",
"255 150 OFFCURVE",
"238 165 OFFCURVE",
"238 188 CURVE SMOOTH",
"238 500 LINE",
"30 500 LINE",
"30 150 LINE SMOOTH",
"30 49 OFFCURVE",
"79 -2 OFFCURVE",
"190 -2 CURVE SMOOTH"
);
},
{
closed = 1;
nodes = (
"532 0 LINE",
"532 500 LINE",
"325 500 LINE",
"325 0 LINE"
);
}
);
width = 568;
},
{
associatedMasterId = "4F25946F-63AC-42D6-8D55-01CF6A99025B";
layerId = "47FA07B0-C6A0-4AEE-ADEB-F55ADBF433D4";
name = "Medium{91,100}";
paths = (
{
closed = 1;
nodes = (
"335 -3 OFFCURVE",
"399 69 OFFCURVE",
"399 169 CURVE",
"354 169 LINE",
"354 106 OFFCURVE",
"314 68 OFFCURVE",
"251 68 CURVE SMOOTH",
"188 68 OFFCURVE",
"149 106 OFFCURVE",
"149 169 CURVE SMOOTH",
"149 500 LINE",
"56 500 LINE",
"56 154 LINE SMOOTH",
"56 54 OFFCURVE",
"112 -3 OFFCURVE",
"217 -3 CURVE SMOOTH"
);
},
{
closed = 1;
nodes = (
"446 0 LINE",
"446 500 LINE",
"354 500 LINE",
"354 0 LINE"
);
}
);
width = 508;
}
);
unicode = 0075;
},
{
color = 1;
glyphname = v;
lastChange = "2016-10-18 03:30:20 +0000";
layers = (
{
layerId = "262880E7-CFE1-4BDA-902E-E24798F3240A";
paths = (
{
closed = 1;
nodes = (
"221 3 LINE",
"386 500 LINE",
"364 500 LINE",
"210 38 LINE",
"56 500 LINE",
"34 500 LINE",
"199 3 LINE"
);
}
);
width = 420;
},
{
layerId = "4F25946F-63AC-42D6-8D55-01CF6A99025B";
paths = (
{
closed = 1;
nodes = (
"345 0 LINE",
"509 500 LINE",
"298 500 LINE",
"249 257 LINE",
"200 500 LINE",
"-11 500 LINE",
"153 0 LINE"
);
}
);
width = 498;
},
{
associatedMasterId = "262880E7-CFE1-4BDA-902E-E24798F3240A";
layerId = "30C42329-3409-4879-A8EC-0B65B1A31C66";
name = "Medium { 91, 100}";
paths = (
{
closed = 1;
nodes = (
"285 0 LINE",
"442 500 LINE",
"349 500 LINE",
"241 129 LINE",
"133 500 LINE",
"41 500 LINE",
"198 0 LINE"
);
}
);
width = 483;
}
);
unicode = 0076;
},
{
color = 1;
glyphname = w;
lastChange = "2016-10-18 03:30:20 +0000";
layers = (
{
layerId = "262880E7-CFE1-4BDA-902E-E24798F3240A";
paths = (
{
closed = 1;
nodes = (
"195 0 LINE",
"319 458 LINE",
"443 0 LINE",
"465 0 LINE",
"600 500 LINE",
"578 500 LINE",
"454 42 LINE",
"330 500 LINE",
"308 500 LINE",
"184 42 LINE",
"60 500 LINE",
"38 500 LINE",
"173 0 LINE"
);
}
);
width = 638;
},
{
layerId = "4F25946F-63AC-42D6-8D55-01CF6A99025B";
paths = (
{
closed = 1;
nodes = (
"303 0 LINE",
"336 240 LINE",
"373 0 LINE",
"563 0 LINE",
"683 500 LINE",
"489 500 LINE",
"456 287 LINE",
"420 500 LINE",
"250 500 LINE",
"215 287 LINE",
"180 500 LINE",
"-7 500 LINE",
"112 0 LINE"
);
}
);
width = 676;
}
);
unicode = 0077;
},
{
color = 1;
glyphname = x;
lastChange = "2016-10-18 03:30:20 +0000";
layers = (
{
layerId = "262880E7-CFE1-4BDA-902E-E24798F3240A";
paths = (
{
closed = 1;
nodes = (
"363 501 LINE",
"209 267 LINE",
"55 501 LINE",
"33 501 LINE",
"198 250 LINE",
"33 -1 LINE",
"55 -1 LINE",
"209 233 LINE",
"363 -1 LINE",
"385 -1 LINE",
"220 250 LINE",
"385 501 LINE"
);
}
);
width = 418;
},
{
layerId = "4F25946F-63AC-42D6-8D55-01CF6A99025B";
paths = (
{
closed = 1;
nodes = (
"301 500 LINE",
"256 411 LINE",
"212 500 LINE",
"-10 500 LINE",
"148 250 LINE",
"-10 0 LINE",
"212 0 LINE",
"256 89 LINE",
"301 0 LINE",
"522 0 LINE",
"365 250 LINE",
"522 500 LINE"
);
}
);
width = 512;
},
{
associatedMasterId = "262880E7-CFE1-4BDA-902E-E24798F3240A";
layerId = "A7F0FF68-370D-4ABA-A088-97B4F33DE289";
name = "Light Oct 15 16, 02:53";
paths = (
{
closed = 1;
nodes = (
"368 501 LINE",
"390 501 LINE",
"60 -1 LINE",
"38 -1 LINE"
);
},
{
closed = 1;
nodes = (
"38 501 LINE",
"60 501 LINE",
"390 -1 LINE",
"368 -1 LINE"
);
}
);
width = 428;
},
{
associatedMasterId = "4F25946F-63AC-42D6-8D55-01CF6A99025B";
layerId = "C8E6816F-D14D-432C-92C0-4654658DD355";
name = "Bold Oct 15 16, 02:53";
paths = (
{
closed = 1;
nodes = (
"306 500 LINE",
"527 500 LINE",
"217 0 LINE",
"-5 0 LINE"
);
},
{
closed = 1;
nodes = (
"-5 500 LINE",
"217 500 LINE",
"527 0 LINE",
"306 0 LINE"
);
}
);
width = 522;
}
);
unicode = 0078;
},
{
color = 1;
glyphname = y;
lastChange = "2016-10-18 03:30:20 +0000";
layers = (
{
layerId = "262880E7-CFE1-4BDA-902E-E24798F3240A";
paths = (
{
closed = 1;
nodes = (
"210 33 LINE",
"55 500 LINE",
"33 500 LINE",
"199 -1 LINE",
"177 -67 LINE SMOOTH",
"143 -169 OFFCURVE",
"120 -190 OFFCURVE",
"57 -190 CURVE",
"57 -211 LINE",
"132 -211 OFFCURVE",
"164 -184 OFFCURVE",
"197 -73 CURVE SMOOTH",
"387 500 LINE",
"365 500 LINE"
);
}
);
width = 420;
},
{
layerId = "4F25946F-63AC-42D6-8D55-01CF6A99025B";
paths = (
{
closed = 1;
nodes = (
"240 321 LINE",
"194 500 LINE",
"-14 500 LINE",
"149 106 LINE",
"141 82 LINE SMOOTH",
"128 42 OFFCURVE",
"113 30 OFFCURVE",
"55 30 CURVE",
"55 -128 LINE",
"221 -128 OFFCURVE",
"279 -72 OFFCURVE",
"319 35 CURVE SMOOTH",
"494 500 LINE",
"286 500 LINE"
);
}
);
width = 481;
}
);
unicode = 0079;
},
{
color = 1;
glyphname = z;
lastChange = "2016-10-18 03:30:20 +0000";
layers = (
{
layerId = "262880E7-CFE1-4BDA-902E-E24798F3240A";
paths = (
{
closed = 1;
nodes = (
"351 1 LINE",
"351 23 LINE",
"58 23 LINE",
"362 478 LINE",
"362 499 LINE",
"39 499 LINE",
"39 478 LINE",
"338 478 LINE",
"34 23 LINE",
"34 1 LINE"
);
}
);
width = 395;
},
{
layerId = "4F25946F-63AC-42D6-8D55-01CF6A99025B";
paths = (
{
closed = 1;
nodes = (
"437 10 LINE",
"437 157 LINE",
"262 157 LINE",
"441 348 LINE",
"441 496 LINE",
"20 496 LINE",
"20 348 LINE",
"208 347 LINE",
"21 157 LINE",
"20 10 LINE"
);
}
);
width = 460;
},
{
associatedMasterId = "4F25946F-63AC-42D6-8D55-01CF6A99025B";
layerId = "516F1C78-99C1-4D19-A6A1-804BC5CB958E";
name = "Demibold {119,100}";
paths = (
{
closed = 1;
nodes = (
"389 6 LINE",
"389 113 LINE",
"183 113 LINE",
"391 386 LINE",
"391 497 LINE",
"32 497 LINE",
"32 386 LINE",
"255 386 LINE",
"42 113 LINE",
"42 6 LINE"
);
}
);
width = 441;
}
);
unicode = 007A;
},
{
color = 1;
glyphname = zero;
lastChange = "2016-10-18 03:30:19 +0000";
layers = (
{
layerId = "262880E7-CFE1-4BDA-902E-E24798F3240A";
paths = (
{
closed = 1;
nodes = (
"368 -9 OFFCURVE",
"423 45 OFFCURVE",
"423 150 CURVE SMOOTH",
"423 550 LINE SMOOTH",
"423 655 OFFCURVE",
"368 709 OFFCURVE",
"263 709 CURVE SMOOTH",
"158 709 OFFCURVE",
"103 655 OFFCURVE",
"103 550 CURVE SMOOTH",
"103 150 LINE SMOOTH",
"103 45 OFFCURVE",
"158 -9 OFFCURVE",
"263 -9 CURVE SMOOTH"
);
},
{
closed = 1;
nodes = (
"172 11 OFFCURVE",
"125 58 OFFCURVE",
"125 150 CURVE SMOOTH",
"125 550 LINE SMOOTH",
"125 642 OFFCURVE",
"172 690 OFFCURVE",
"263 690 CURVE SMOOTH",
"354 690 OFFCURVE",
"401 642 OFFCURVE",
"401 550 CURVE SMOOTH",
"401 150 LINE SMOOTH",
"401 58 OFFCURVE",
"354 11 OFFCURVE",
"263 11 CURVE SMOOTH"
);
}
);
width = 526;
},
{
layerId = "4F25946F-63AC-42D6-8D55-01CF6A99025B";
paths = (
{
closed = 1;
nodes = (
"456 -10 OFFCURVE",
"544 73 OFFCURVE",
"544 233 CURVE SMOOTH",
"544 467 LINE SMOOTH",
"544 627 OFFCURVE",
"456 710 OFFCURVE",
"284 710 CURVE SMOOTH",
"112 710 OFFCURVE",
"24 627 OFFCURVE",
"24 467 CURVE SMOOTH",
"24 233 LINE SMOOTH",
"24 73 OFFCURVE",
"112 -10 OFFCURVE",
"284 -10 CURVE SMOOTH"
);
},
{
closed = 1;
nodes = (
"255 174 OFFCURVE",
"236 194 OFFCURVE",
"236 223 CURVE SMOOTH",
"236 477 LINE SMOOTH",
"236 506 OFFCURVE",
"255 526 OFFCURVE",
"284 526 CURVE SMOOTH",
"313 526 OFFCURVE",
"332 506 OFFCURVE",
"332 477 CURVE SMOOTH",
"332 223 LINE SMOOTH",
"332 194 OFFCURVE",
"313 174 OFFCURVE",
"284 174 CURVE SMOOTH"
);
}
);
width = 568;
}
);
unicode = 0030;
},
{
color = 1;
glyphname = one;
lastChange = "2016-10-18 03:30:20 +0000";
layers = (
{
layerId = "4F25946F-63AC-42D6-8D55-01CF6A99025B";
paths = (
{
closed = 1;
nodes = (
"276 0 LINE",
"276 700 LINE",
"64 700 LINE",
"64 0 LINE"
);
},
{
closed = 1;
nodes = (
"1 512 LINE",
"64 512 LINE",
"64 700 LINE",
"1 674 LINE"
);
}
);
width = 320;
},
{
layerId = "262880E7-CFE1-4BDA-902E-E24798F3240A";
paths = (
{
closed = 1;
nodes = (
"137 0 LINE",
"137 700 LINE",
"115 700 LINE",
"115 0 LINE"
);
},
{
closed = 1;
nodes = (
"74 646 LINE",
"115 662 LINE",
"115 700 LINE",
"74 668 LINE"
);
}
);
width = 249;
}
);
unicode = 0031;
},
{
color = 1;
glyphname = two;
lastChange = "2016-10-18 03:30:19 +0000";
layers = (
{
layerId = "4F25946F-63AC-42D6-8D55-01CF6A99025B";
paths = (
{
closed = 1;
nodes = (
"515 0 LINE",
"515 188 LINE",
"268 188 LINE",
"499 447 LINE",
"516 475 OFFCURVE",
"527 500 OFFCURVE",
"527 534 CURVE SMOOTH",
"527 633 OFFCURVE",
"432 700 OFFCURVE",
"275 700 CURVE SMOOTH",
"116 700 OFFCURVE",
"15 631 OFFCURVE",
"15 519 CURVE",
"15 454 LINE",
"223 455 LINE",
"223 481 LINE",
"223 506 OFFCURVE",
"240 523 OFFCURVE",
"265 523 CURVE SMOOTH",
"293 523 OFFCURVE",
"305 502 OFFCURVE",
"305 489 CURVE SMOOTH",
"305 474 OFFCURVE",
"291 455 OFFCURVE",
"266 426 CURVE",
"18 171 LINE",
"18 0 LINE"
);
}
);
width = 539;
},
{
layerId = "262880E7-CFE1-4BDA-902E-E24798F3240A";
paths = (
{
closed = 1;
nodes = (
"394 0 LINE",
"394 22 LINE",
"91 22 LINE",
"331 364 LINE SMOOTH",
"369 419 OFFCURVE",
"393 470 OFFCURVE",
"393 530 CURVE SMOOTH",
"393 615 OFFCURVE",
"344 710 OFFCURVE",
"230 710 CURVE SMOOTH",
"125 710 OFFCURVE",
"62 635 OFFCURVE",
"62 500 CURVE",
"62 479 LINE",
"83 479 LINE",
"83 500 LINE SMOOTH",
"83 618 OFFCURVE",
"138 690 OFFCURVE",
"229 690 CURVE SMOOTH",
"317 690 OFFCURVE",
"372 622 OFFCURVE",
"372 530 CURVE SMOOTH",
"372 478 OFFCURVE",
"354 434 OFFCURVE",
"326 395 CURVE SMOOTH",
"63 21 LINE",
"62 0 LINE"
);
}
);
width = 459;
}
);
unicode = 0032;
},
{
color = 1;
glyphname = eight;
lastChange = "2016-10-18 03:36:16 +0000";
layers = (
{
layerId = "262880E7-CFE1-4BDA-902E-E24798F3240A";
paths = (
{
closed = 1;
nodes = (
"360 364 OFFCURVE",
"415 418 OFFCURVE",
"415 523 CURVE SMOOTH",
"415 548 LINE SMOOTH",
"415 653 OFFCURVE",
"360 707 OFFCURVE",
"255 707 CURVE SMOOTH",
"150 707 OFFCURVE",
"95 653 OFFCURVE",
"95 548 CURVE SMOOTH",
"95 523 LINE SMOOTH",
"95 418 OFFCURVE",
"150 364 OFFCURVE",
"255 364 CURVE SMOOTH"
);
},
{
closed = 1;
nodes = (
"164 384 OFFCURVE",
"117 431 OFFCURVE",
"117 523 CURVE SMOOTH",
"117 548 LINE SMOOTH",
"117 640 OFFCURVE",
"164 688 OFFCURVE",
"255 688 CURVE SMOOTH",
"346 688 OFFCURVE",
"393 640 OFFCURVE",
"393 548 CURVE SMOOTH",
"393 523 LINE SMOOTH",
"393 431 OFFCURVE",
"346 384 OFFCURVE",
"255 384 CURVE SMOOTH"
);
},
{
closed = 1;
nodes = (
"360 -18 OFFCURVE",
"415 36 OFFCURVE",
"415 141 CURVE SMOOTH",
"415 225 LINE SMOOTH",
"415 330 OFFCURVE",
"360 384 OFFCURVE",
"255 384 CURVE SMOOTH",
"150 384 OFFCURVE",
"95 330 OFFCURVE",
"95 225 CURVE SMOOTH",
"95 141 LINE SMOOTH",
"95 36 OFFCURVE",
"150 -18 OFFCURVE",
"255 -18 CURVE SMOOTH"
);
},
{
closed = 1;
nodes = (
"164 2 OFFCURVE",
"117 49 OFFCURVE",
"117 141 CURVE SMOOTH",
"117 225 LINE SMOOTH",
"117 317 OFFCURVE",
"164 365 OFFCURVE",
"255 365 CURVE SMOOTH",
"346 365 OFFCURVE",
"393 317 OFFCURVE",
"393 225 CURVE SMOOTH",
"393 141 LINE SMOOTH",
"393 49 OFFCURVE",
"346 2 OFFCURVE",
"255 2 CURVE SMOOTH"
);
}
);
width = 510;
},
{
layerId = "4F25946F-63AC-42D6-8D55-01CF6A99025B";
paths = (
{
closed = 1;
nodes = (
"311 337 OFFCURVE",
"502 343 OFFCURVE",
"502 498 CURVE",
"502 507 LINE",
"500 641 OFFCURVE",
"419 711 OFFCURVE",
"266 711 CURVE",
"112 711 OFFCURVE",
"32 650 OFFCURVE",
"32 516 CURVE",
"32 507 LINE",
"33 344 OFFCURVE",
"213 337 OFFCURVE",
"266 337 CURVE SMOOTH"
);
},
{
closed = 1;
nodes = (
"240 458 OFFCURVE",
"223 474 OFFCURVE",
"223 499 CURVE SMOOTH",
"223 533 LINE SMOOTH",
"223 558 OFFCURVE",
"240 574 OFFCURVE",
"266 574 CURVE SMOOTH",
"292 574 OFFCURVE",
"310 558 OFFCURVE",
"310 533 CURVE SMOOTH",
"310 499 LINE SMOOTH",
"310 474 OFFCURVE",
"292 458 OFFCURVE",
"266 458 CURVE SMOOTH"
);
},
{
closed = 1;
nodes = (
"441 -5 OFFCURVE",
"522 77 OFFCURVE",
"522 202 CURVE",
"522 231 LINE",
"522 324 OFFCURVE",
"431 455 OFFCURVE",
"267 401 CURVE",
"109 455 OFFCURVE",
"12 316 OFFCURVE",
"12 231 CURVE",
"12 202 LINE",
"13 69 OFFCURVE",
"99 -5 OFFCURVE",
"266 -5 CURVE SMOOTH"
);
},
{
closed = 1;
nodes = (
"240 139 OFFCURVE",
"223 155 OFFCURVE",
"223 180 CURVE SMOOTH",
"223 258 LINE SMOOTH",
"223 283 OFFCURVE",
"240 299 OFFCURVE",
"266 299 CURVE",
"292 299 OFFCURVE",
"310 283 OFFCURVE",
"310 258 CURVE SMOOTH",
"310 180 LINE SMOOTH",
"310 155 OFFCURVE",
"292 139 OFFCURVE",
"266 139 CURVE SMOOTH"
);
}
);
width = 534;
},
{
associatedMasterId = "4F25946F-63AC-42D6-8D55-01CF6A99025B";
layerId = "9541491C-EA7C-4850-9E65-38E203544E44";
name = "Medium {91,100}";
paths = (
{
closed = 1;
nodes = (
"378 354 OFFCURVE",
"448 413 OFFCURVE",
"448 514 CURVE SMOOTH",
"448 532 LINE SMOOTH",
"447 644 OFFCURVE",
"377 709 OFFCURVE",
"259 709 CURVE SMOOTH",
"141 709 OFFCURVE",
"71 645 OFFCURVE",
"71 536 CURVE SMOOTH",
"71 517 LINE SMOOTH",
"71 414 OFFCURVE",
"141 354 OFFCURVE",
"259 354 CURVE SMOOTH"
);
},
{
closed = 1;
nodes = (
"195 416 OFFCURVE",
"157 453 OFFCURVE",
"157 517 CURVE SMOOTH",
"157 546 LINE SMOOTH",
"157 610 OFFCURVE",
"195 648 OFFCURVE",
"259 648 CURVE SMOOTH",
"323 648 OFFCURVE",
"361 610 OFFCURVE",
"361 546 CURVE SMOOTH",
"361 517 LINE SMOOTH",
"361 453 OFFCURVE",
"323 416 OFFCURVE",
"259 416 CURVE SMOOTH"
);
},
{
closed = 1;
nodes = (
"383 -13 OFFCURVE",
"456 52 OFFCURVE",
"456 164 CURVE SMOOTH",
"456 227 LINE SMOOTH",
"456 350 OFFCURVE",
"383 410 OFFCURVE",
"260 390 CURVE SMOOTH",
"136 411 OFFCURVE",
"63 350 OFFCURVE",
"63 227 CURVE SMOOTH",
"63 164 LINE SMOOTH",
"64 52 OFFCURVE",
"136 -13 OFFCURVE",
"259 -13 CURVE SMOOTH"
);
},
{
closed = 1;
nodes = (
"195 54 OFFCURVE",
"157 92 OFFCURVE",
"157 156 CURVE SMOOTH",
"157 238 LINE SMOOTH",
"157 302 OFFCURVE",
"195 340 OFFCURVE",
"259 340 CURVE SMOOTH",
"323 340 OFFCURVE",
"361 302 OFFCURVE",
"361 238 CURVE SMOOTH",
"361 156 LINE SMOOTH",
"361 92 OFFCURVE",
"323 54 OFFCURVE",
"259 54 CURVE SMOOTH"
);
}
);
width = 519;
}
);
unicode = 0038;
},
{
color = 1;
glyphname = colon;
lastChange = "2016-10-18 03:30:19 +0000";
layers = (
{
layerId = "262880E7-CFE1-4BDA-902E-E24798F3240A";
paths = (
{
closed = 1;
nodes = (
"175 37 OFFCURVE",
"194 55 OFFCURVE",
"194 78 CURVE SMOOTH",
"194 100 OFFCURVE",
"175 118 OFFCURVE",
"153 118 CURVE SMOOTH",
"131 118 OFFCURVE",
"112 100 OFFCURVE",
"112 78 CURVE SMOOTH",
"112 55 OFFCURVE",
"130 37 OFFCURVE",
"153 37 CURVE SMOOTH"
);
},
{
closed = 1;
nodes = (
"175 350 OFFCURVE",
"194 368 OFFCURVE",
"194 391 CURVE SMOOTH",
"194 413 OFFCURVE",
"175 431 OFFCURVE",
"153 431 CURVE SMOOTH",
"131 431 OFFCURVE",
"112 413 OFFCURVE",
"112 391 CURVE SMOOTH",
"112 368 OFFCURVE",
"130 350 OFFCURVE",
"153 350 CURVE SMOOTH"
);
}
);
width = 306;
},
{
layerId = "4F25946F-63AC-42D6-8D55-01CF6A99025B";
paths = (
{
closed = 1;
nodes = (
"186 -6 OFFCURVE",
"235 40 OFFCURVE",
"235 99 CURVE",
"235 156 OFFCURVE",
"186 202 OFFCURVE",
"129 202 CURVE SMOOTH",
"72 202 OFFCURVE",
"23 156 OFFCURVE",
"23 99 CURVE SMOOTH",
"23 40 OFFCURVE",
"70 -6 OFFCURVE",
"129 -6 CURVE SMOOTH"
);
},
{
closed = 1;
nodes = (
"186 288 OFFCURVE",
"235 334 OFFCURVE",
"235 393 CURVE",
"235 450 OFFCURVE",
"186 496 OFFCURVE",
"129 496 CURVE SMOOTH",
"72 496 OFFCURVE",
"23 450 OFFCURVE",
"23 393 CURVE SMOOTH",
"23 334 OFFCURVE",
"70 288 OFFCURVE",
"129 288 CURVE SMOOTH"
);
}
);
width = 258;
}
);
unicode = 003A;
},
{
color = 1;
glyphname = comma;
lastChange = "2016-10-18 03:30:20 +0000";
layers = (
{
layerId = "262880E7-CFE1-4BDA-902E-E24798F3240A";
paths = (
{
closed = 1;
nodes = (
"182 153 LINE",
"156 153 LINE",
"106 -66 LINE",
"127 -66 LINE"
);
}
);
width = 286;
},
{
layerId = "4F25946F-63AC-42D6-8D55-01CF6A99025B";
paths = (
{
closed = 1;
nodes = (
"241 143 LINE",
"61 142 LINE",
"42 -86 LINE",
"190 -86 LINE"
);
}
);
width = 268;
}
);
unicode = 002C;
},
{
color = 1;
glyphname = exclam;
lastChange = "2016-10-18 03:30:20 +0000";
layers = (
{
layerId = "262880E7-CFE1-4BDA-902E-E24798F3240A";
paths = (
{
closed = 1;
nodes = (
"156 220 LINE",
"156 700 LINE",
"134 700 LINE",
"134 220 LINE"
);
},
{
closed = 1;
nodes = (
"164 5 OFFCURVE",
"183 23 OFFCURVE",
"183 46 CURVE SMOOTH",
"183 68 OFFCURVE",
"164 86 OFFCURVE",
"142 86 CURVE SMOOTH",
"120 86 OFFCURVE",
"101 68 OFFCURVE",
"101 46 CURVE SMOOTH",
"101 23 OFFCURVE",
"119 5 OFFCURVE",
"142 5 CURVE SMOOTH"
);
}
);
width = 289;
},
{
layerId = "4F25946F-63AC-42D6-8D55-01CF6A99025B";
paths = (
{
closed = 1;
nodes = (
"212 250 LINE",
"242 700 LINE",
"34 700 LINE",
"64 250 LINE"
);
},
{
closed = 1;
nodes = (
"193 -6 OFFCURVE",
"242 40 OFFCURVE",
"242 99 CURVE",
"242 156 OFFCURVE",
"193 202 OFFCURVE",
"136 202 CURVE SMOOTH",
"79 202 OFFCURVE",
"30 156 OFFCURVE",
"30 99 CURVE SMOOTH",
"30 40 OFFCURVE",
"77 -6 OFFCURVE",
"136 -6 CURVE SMOOTH"
);
}
);
width = 275;
}
);
unicode = 0021;
},
{
color = 1;
glyphname = period;
lastChange = "2016-10-18 03:30:19 +0000";
layers = (
{
layerId = "262880E7-CFE1-4BDA-902E-E24798F3240A";
paths = (
{
closed = 1;
nodes = (
"186 5 OFFCURVE",
"205 23 OFFCURVE",
"205 46 CURVE SMOOTH",
"205 68 OFFCURVE",
"186 86 OFFCURVE",
"164 86 CURVE SMOOTH",
"142 86 OFFCURVE",
"123 68 OFFCURVE",
"123 46 CURVE SMOOTH",
"123 23 OFFCURVE",
"141 5 OFFCURVE",
"164 5 CURVE SMOOTH"
);
}
);
width = 328;
},
{
layerId = "4F25946F-63AC-42D6-8D55-01CF6A99025B";
paths = (
{
closed = 1;
nodes = (
"192 -6 OFFCURVE",
"241 40 OFFCURVE",
"241 99 CURVE",
"241 156 OFFCURVE",
"192 202 OFFCURVE",
"135 202 CURVE SMOOTH",
"78 202 OFFCURVE",
"29 156 OFFCURVE",
"29 99 CURVE SMOOTH",
"29 40 OFFCURVE",
"76 -6 OFFCURVE",
"135 -6 CURVE SMOOTH"
);
}
);
width = 270;
}
);
unicode = 002E;
},
{
color = 1;
glyphname = question;
lastChange = "2016-10-18 03:30:20 +0000";
layers = (
{
layerId = "4F25946F-63AC-42D6-8D55-01CF6A99025B";
paths = (
{
closed = 1;
nodes = (
"349 223 LINE",
"349 238 OFFCURVE",
"349 256 OFFCURVE",
"349 262 CURVE SMOOTH",
"349 330 OFFCURVE",
"505 329 OFFCURVE",
"505 494 CURVE SMOOTH",
"505 629 OFFCURVE",
"407 710 OFFCURVE",
"261 710 CURVE SMOOTH",
"106 710 OFFCURVE",
"3 618 OFFCURVE",
"3 479 CURVE SMOOTH",
"3 474 LINE",
"215 464 LINE",
"215 479 LINE SMOOTH",
"215 502 OFFCURVE",
"231 518 OFFCURVE",
"255 518 CURVE SMOOTH",
"276 518 OFFCURVE",
"290 506 OFFCURVE",
"290 487 CURVE SMOOTH",
"290 424 OFFCURVE",
"145 423 OFFCURVE",
"145 290 CURVE SMOOTH",
"145 268 OFFCURVE",
"145 261 OFFCURVE",
"145 224 CURVE"
);
},
{
closed = 1;
nodes = (
"309 -6 OFFCURVE",
"358 40 OFFCURVE",
"358 99 CURVE",
"358 156 OFFCURVE",
"309 202 OFFCURVE",
"252 202 CURVE SMOOTH",
"195 202 OFFCURVE",
"146 156 OFFCURVE",
"146 99 CURVE SMOOTH",
"146 40 OFFCURVE",
"193 -6 OFFCURVE",
"252 -6 CURVE SMOOTH"
);
}
);
width = 513;
},
{
layerId = "262880E7-CFE1-4BDA-902E-E24798F3240A";
paths = (
{
closed = 1;
nodes = (
"252 239 LINE",
"222 243 OFFCURVE",
"207 254 OFFCURVE",
"207 275 CURVE SMOOTH",
"207 346 OFFCURVE",
"388 378 OFFCURVE",
"388 546 CURVE SMOOTH",
"388 645 OFFCURVE",
"325 709 OFFCURVE",
"231 709 CURVE SMOOTH",
"136 709 OFFCURVE",
"72 645 OFFCURVE",
"72 550 CURVE SMOOTH",
"72 500 LINE",
"94 500 LINE",
"94 550 LINE SMOOTH",
"94 633 OFFCURVE",
"149 688 OFFCURVE",
"231 688 CURVE SMOOTH",
"312 688 OFFCURVE",
"366 633 OFFCURVE",
"366 549 CURVE SMOOTH",
"366 395 OFFCURVE",
"183 364 OFFCURVE",
"183 271 CURVE SMOOTH",
"183 235 OFFCURVE",
"211 213 OFFCURVE",
"252 215 CURVE"
);
},
{
closed = 1;
nodes = (
"238 5 OFFCURVE",
"257 23 OFFCURVE",
"257 46 CURVE SMOOTH",
"257 68 OFFCURVE",
"238 86 OFFCURVE",
"216 86 CURVE SMOOTH",
"194 86 OFFCURVE",
"175 68 OFFCURVE",
"175 46 CURVE SMOOTH",
"175 23 OFFCURVE",
"193 5 OFFCURVE",
"216 5 CURVE SMOOTH"
);
}
);
width = 464;
},
{
associatedMasterId = "4F25946F-63AC-42D6-8D55-01CF6A99025B";
layerId = "E56F6CC4-F9B5-46E1-BC01-FC7B34A3882B";
name = "DemiBold {119,100}";
paths = (
{
closed = 1;
nodes = (
"344 261 LINE",
"333 262 OFFCURVE",
"324 261 OFFCURVE",
"324 276 CURVE SMOOTH",
"324 341 OFFCURVE",
"489 355 OFFCURVE",
"489 519 CURVE SMOOTH",
"489 634 OFFCURVE",
"409 710 OFFCURVE",
"286 710 CURVE SMOOTH",
"161 710 OFFCURVE",
"74 630 OFFCURVE",
"74 512 CURVE SMOOTH",
"74 486 LINE",
"198 481 LINE",
"198 512 LINE SMOOTH",
"198 562 OFFCURVE",
"231 597 OFFCURVE",
"283 597 CURVE SMOOTH",
"333 597 OFFCURVE",
"364 565 OFFCURVE",
"364 516 CURVE SMOOTH",
"364 401 OFFCURVE",
"194 408 OFFCURVE",
"194 270 CURVE SMOOTH",
"194 214 OFFCURVE",
"222 166 OFFCURVE",
"332 182 CURVE"
);
},
{
closed = 1;
nodes = (
"313 -1 OFFCURVE",
"348 32 OFFCURVE",
"348 74 CURVE SMOOTH",
"348 115 OFFCURVE",
"313 148 OFFCURVE",
"272 148 CURVE SMOOTH",
"232 148 OFFCURVE",
"197 115 OFFCURVE",
"197 74 CURVE SMOOTH",
"197 32 OFFCURVE",
"230 -1 OFFCURVE",
"272 -1 CURVE SMOOTH"
);
}
);
width = 539;
}
);
unicode = 003F;
},
{
color = 1;
glyphname = quotedbl;
lastChange = "2016-10-18 03:30:19 +0000";
layers = (
{
layerId = "262880E7-CFE1-4BDA-902E-E24798F3240A";
paths = (
{
closed = 1;
nodes = (
"263 501 LINE",
"263 693 LINE",
"241 693 LINE",
"241 501 LINE"
);
},
{
closed = 1;
nodes = (
"153 501 LINE",
"153 693 LINE",
"131 693 LINE",
"131 501 LINE"
);
}
);
width = 394;
},
{
layerId = "4F25946F-63AC-42D6-8D55-01CF6A99025B";
paths = (
{
closed = 1;
nodes = (
"508 481 LINE",
"518 693 LINE",
"316 693 LINE",
"324 481 LINE"
);
},
{
closed = 1;
nodes = (
"238 481 LINE",
"248 693 LINE",
"46 693 LINE",
"56 481 LINE"
);
}
);
width = 564;
}
);
unicode = 0022;
},
{
color = 1;
glyphname = quotesingle;
lastChange = "2016-10-18 03:30:20 +0000";
layers = (
{
layerId = "262880E7-CFE1-4BDA-902E-E24798F3240A";
paths = (
{
closed = 1;
nodes = (
"153 697 LINE",
"131 697 LINE",
"131 507 LINE",
"153 507 LINE"
);
}
);
width = 284;
},
{
layerId = "4F25946F-63AC-42D6-8D55-01CF6A99025B";
paths = (
{
closed = 1;
nodes = (
"230 699 LINE",
"46 699 LINE",
"56 452 LINE",
"220 452 LINE"
);
}
);
width = 276;
}
);
unicode = 0027;
},
{
color = 1;
glyphname = semicolon;
lastChange = "2016-10-18 03:30:20 +0000";
layers = (
{
layerId = "262880E7-CFE1-4BDA-902E-E24798F3240A";
paths = (
{
closed = 1;
nodes = (
"172 370 OFFCURVE",
"191 388 OFFCURVE",
"191 411 CURVE",
"191 433 OFFCURVE",
"172 451 OFFCURVE",
"150 451 CURVE SMOOTH",
"128 451 OFFCURVE",
"109 433 OFFCURVE",
"109 411 CURVE SMOOTH",
"109 388 OFFCURVE",
"127 370 OFFCURVE",
"150 370 CURVE SMOOTH"
);
},
{
closed = 1;
nodes = (
"130 -60 LINE",
"166 147 LINE",
"144 147 LINE",
"109 -60 LINE"
);
}
);
width = 291;
},
{
layerId = "4F25946F-63AC-42D6-8D55-01CF6A99025B";
paths = (
{
closed = 1;
nodes = (
"192 288 OFFCURVE",
"241 334 OFFCURVE",
"241 393 CURVE",
"241 450 OFFCURVE",
"192 496 OFFCURVE",
"135 496 CURVE SMOOTH",
"78 496 OFFCURVE",
"29 450 OFFCURVE",
"29 393 CURVE SMOOTH",
"29 334 OFFCURVE",
"76 288 OFFCURVE",
"135 288 CURVE SMOOTH"
);
},
{
closed = 1;
nodes = (
"176 -46 LINE",
"227 183 LINE",
"57 182 LINE",
"38 -46 LINE"
);
}
);
width = 264;
}
);
unicode = 003B;
},
{
color = 1;
glyphname = slash;
lastChange = "2016-10-18 03:30:19 +0000";
layers = (
{
layerId = "262880E7-CFE1-4BDA-902E-E24798F3240A";
paths = (
{
closed = 1;
nodes = (
"59 0 LINE",
"197 700 LINE",
"175 700 LINE",
"37 0 LINE"
);
}
);
width = 234;
},
{
layerId = "4F25946F-63AC-42D6-8D55-01CF6A99025B";
paths = (
{
closed = 1;
nodes = (
"192 0 LINE",
"330 700 LINE",
"128 700 LINE",
"-10 0 LINE"
);
}
);
width = 320;
}
);
unicode = 002F;
},
{
color = 1;
glyphname = quotesingle.alt;
lastChange = "2016-10-18 03:30:19 +0000";
layers = (
{
layerId = "262880E7-CFE1-4BDA-902E-E24798F3240A";
paths = (
{
closed = 1;
nodes = (
"153 699 LINE",
"131 699 LINE",
"131 507 LINE",
"153 507 LINE"
);
}
);
width = 284;
},
{
layerId = "4F25946F-63AC-42D6-8D55-01CF6A99025B";
paths = (
{
closed = 1;
nodes = (
"240 603 LINE",
"56 603 LINE",
"47 344 LINE",
"178 344 LINE"
);
}
);
width = 262;
}
);
},
{
color = 1;
glyphname = emdash;
lastChange = "2016-10-18 03:30:20 +0000";
layers = (
{
layerId = "262880E7-CFE1-4BDA-902E-E24798F3240A";
paths = (
{
closed = 1;
nodes = (
"502 251 LINE",
"502 272 LINE",
"94 272 LINE",
"94 251 LINE"
);
}
);
width = 596;
},
{
layerId = "4F25946F-63AC-42D6-8D55-01CF6A99025B";
paths = (
{
closed = 1;
nodes = (
"636 180 LINE",
"636 368 LINE",
"36 368 LINE",
"36 180 LINE"
);
}
);
width = 672;
}
);
unicode = 2014;
},
{
color = 1;
glyphname = hyphen;
lastChange = "2016-10-18 03:30:19 +0000";
layers = (
{
layerId = "4F25946F-63AC-42D6-8D55-01CF6A99025B";
paths = (
{
closed = 1;
nodes = (
"316 180 LINE",
"316 368 LINE",
"36 368 LINE",
"36 180 LINE"
);
}
);
width = 352;
},
{
layerId = "262880E7-CFE1-4BDA-902E-E24798F3240A";
paths = (
{
closed = 1;
nodes = (
"352 251 LINE",
"352 272 LINE",
"94 272 LINE",
"94 251 LINE"
);
}
);
width = 446;
}
);
unicode = 002D;
},
{
color = 1;
glyphname = dollar;
lastChange = "2016-10-18 03:30:19 +0000";
layers = (
{
layerId = "4F25946F-63AC-42D6-8D55-01CF6A99025B";
paths = (
{
closed = 1;
nodes = (
"438 -10 OFFCURVE",
"532 74 OFFCURVE",
"532 200 CURVE SMOOTH",
"532 312 OFFCURVE",
"458 381 OFFCURVE",
"345 425 CURVE SMOOTH",
"299 443 OFFCURVE",
"246 456 OFFCURVE",
"246 489 CURVE SMOOTH",
"246 503 OFFCURVE",
"256 518 OFFCURVE",
"280 518 CURVE SMOOTH",
"306 518 OFFCURVE",
"321 501 OFFCURVE",
"321 479 CURVE SMOOTH",
"321 464 LINE",
"533 474 LINE",
"533 479 LINE SMOOTH",
"533 617 OFFCURVE",
"426 710 OFFCURVE",
"274 710 CURVE SMOOTH",
"127 710 OFFCURVE",
"31 624 OFFCURVE",
"31 498 CURVE SMOOTH",
"31 389 OFFCURVE",
"104 318 OFFCURVE",
"218 275 CURVE SMOOTH",
"260 259 OFFCURVE",
"316 245 OFFCURVE",
"316 214 CURVE SMOOTH",
"316 201 OFFCURVE",
"307 182 OFFCURVE",
"281 182 CURVE SMOOTH",
"257 182 OFFCURVE",
"242 199 OFFCURVE",
"242 231 CURVE SMOOTH",
"242 236 LINE",
"19 226 LINE",
"19 221 LINE SMOOTH",
"19 83 OFFCURVE",
"125 -10 OFFCURVE",
"285 -10 CURVE SMOOTH"
);
},
{
closed = 1;
nodes = (
"356 -53 LINE",
"356 93 LINE",
"235 93 LINE",
"235 -53 LINE"
);
},
{
closed = 1;
nodes = (
"353 599 LINE",
"353 745 LINE",
"232 745 LINE",
"232 599 LINE"
);
}
);
width = 556;
},
{
layerId = "262880E7-CFE1-4BDA-902E-E24798F3240A";
paths = (
{
closed = 1;
nodes = (
"362 -9 OFFCURVE",
"426 50 OFFCURVE",
"426 149 CURVE SMOOTH",
"426 255 OFFCURVE",
"353 307 OFFCURVE",
"271 361 CURVE SMOOTH",
"190 414 OFFCURVE",
"126 459 OFFCURVE",
"126 552 CURVE SMOOTH",
"126 636 OFFCURVE",
"178 690 OFFCURVE",
"262 690 CURVE SMOOTH",
"346 690 OFFCURVE",
"398 637 OFFCURVE",
"398 550 CURVE SMOOTH",
"398 500 LINE",
"420 500 LINE",
"420 550 LINE SMOOTH",
"420 650 OFFCURVE",
"360 709 OFFCURVE",
"262 709 CURVE SMOOTH",
"164 709 OFFCURVE",
"104 649 OFFCURVE",
"104 553 CURVE SMOOTH",
"104 446 OFFCURVE",
"179 394 OFFCURVE",
"257 342 CURVE SMOOTH",
"334 291 OFFCURVE",
"404 244 OFFCURVE",
"404 148 CURVE SMOOTH",
"404 63 OFFCURVE",
"348 11 OFFCURVE",
"266 11 CURVE SMOOTH",
"178 11 OFFCURVE",
"132 64 OFFCURVE",
"132 150 CURVE SMOOTH",
"132 200 LINE",
"110 200 LINE",
"110 150 LINE SMOOTH",
"110 50 OFFCURVE",
"165 -9 OFFCURVE",
"267 -9 CURVE SMOOTH"
);
},
{
closed = 1;
nodes = (
"272 -88 LINE",
"272 2 LINE",
"249 2 LINE",
"249 -88 LINE"
);
},
{
closed = 1;
nodes = (
"272 702 LINE",
"272 792 LINE",
"249 792 LINE",
"249 702 LINE"
);
}
);
width = 530;
},
{
associatedMasterId = "4F25946F-63AC-42D6-8D55-01CF6A99025B";
layerId = "E869EA52-1DFA-43F8-82AD-AF9382669512";
name = "DemiBold{119,100}";
paths = (
{
closed = 1;
nodes = (
"387 -10 OFFCURVE",
"467 63 OFFCURVE",
"467 176 CURVE SMOOTH",
"467 286 OFFCURVE",
"394 347 OFFCURVE",
"295 395 CURVE SMOOTH",
"233 430 OFFCURVE",
"175 457 OFFCURVE",
"175 518 CURVE SMOOTH",
"175 565 OFFCURVE",
"204 598 OFFCURVE",
"256 598 CURVE SMOOTH",
"309 598 OFFCURVE",
"341 564 OFFCURVE",
"341 512 CURVE SMOOTH",
"341 481 LINE",
"465 486 LINE",
"465 512 LINE SMOOTH",
"465 632 OFFCURVE",
"380 710 OFFCURVE",
"253 710 CURVE SMOOTH",
"129 710 OFFCURVE",
"49 636 OFFCURVE",
"49 524 CURVE SMOOTH",
"49 415 OFFCURVE",
"123 353 OFFCURVE",
"221 306 CURVE SMOOTH",
"279 274 OFFCURVE",
"341 245 OFFCURVE",
"341 183 CURVE SMOOTH",
"341 137 OFFCURVE",
"311 103 OFFCURVE",
"259 103 CURVE SMOOTH",
"205 103 OFFCURVE",
"176 136 OFFCURVE",
"176 193 CURVE SMOOTH",
"176 219 LINE",
"46 214 LINE",
"46 188 LINE SMOOTH",
"46 68 OFFCURVE",
"128 -10 OFFCURVE",
"261 -10 CURVE SMOOTH"
);
},
{
closed = 1;
nodes = (
"306 -80 LINE",
"306 40 LINE",
"203 40 LINE",
"203 -80 LINE"
);
},
{
closed = 1;
nodes = (
"309 652 LINE",
"309 777 LINE",
"205 777 LINE",
"205 652 LINE"
);
}
);
width = 513;
}
);
unicode = 0024;
},
{
color = 1;
glyphname = at;
lastChange = "2016-10-18 03:30:19 +0000";
layers = (
{
layerId = "262880E7-CFE1-4BDA-902E-E24798F3240A";
paths = (
{
closed = 1;
nodes = (
"655 -68 OFFCURVE",
"817 92 OFFCURVE",
"817 290 CURVE SMOOTH",
"817 488 OFFCURVE",
"655 648 OFFCURVE",
"456 648 CURVE SMOOTH",
"257 648 OFFCURVE",
"95 488 OFFCURVE",
"95 290 CURVE SMOOTH",
"95 92 OFFCURVE",
"257 -68 OFFCURVE",
"456 -68 CURVE SMOOTH"
);
},
{
closed = 1;
nodes = (
"269 -50 OFFCURVE",
"117 102 OFFCURVE",
"117 290 CURVE SMOOTH",
"117 478 OFFCURVE",
"269 630 OFFCURVE",
"456 630 CURVE SMOOTH",
"643 630 OFFCURVE",
"795 478 OFFCURVE",
"795 290 CURVE SMOOTH",
"795 102 OFFCURVE",
"643 -50 OFFCURVE",
"456 -50 CURVE SMOOTH"
);
},
{
closed = 1;
nodes = (
"522 105 OFFCURVE",
"566 152 OFFCURVE",
"566 227 CURVE SMOOTH",
"566 369 LINE SMOOTH",
"566 444 OFFCURVE",
"522 491 OFFCURVE",
"450 491 CURVE SMOOTH",
"377 491 OFFCURVE",
"329 445 OFFCURVE",
"329 370 CURVE SMOOTH",
"329 226 LINE SMOOTH",
"329 151 OFFCURVE",
"377 105 OFFCURVE",
"450 105 CURVE SMOOTH"
);
},
{
closed = 1;
nodes = (
"385 121 OFFCURVE",
"346 161 OFFCURVE",
"346 226 CURVE SMOOTH",
"346 370 LINE SMOOTH",
"346 435 OFFCURVE",
"387 475 OFFCURVE",
"450 475 CURVE SMOOTH",
"514 475 OFFCURVE",
"555 435 OFFCURVE",
"555 370 CURVE SMOOTH",
"555 226 LINE SMOOTH",
"555 161 OFFCURVE",
"516 121 OFFCURVE",
"450 121 CURVE SMOOTH"
);
},
{
closed = 1;
nodes = (
"571 110 LINE",
"571 486 LINE",
"555 486 LINE",
"555 110 LINE"
);
}
);
width = 912;
},
{
layerId = "4F25946F-63AC-42D6-8D55-01CF6A99025B";
paths = (
{
closed = 1;
nodes = (
"575 -53 OFFCURVE",
"737 108 OFFCURVE",
"737 306 CURVE SMOOTH",
"737 504 OFFCURVE",
"575 665 OFFCURVE",
"377 665 CURVE SMOOTH",
"179 665 OFFCURVE",
"17 504 OFFCURVE",
"17 306 CURVE SMOOTH",
"17 108 OFFCURVE",
"179 -53 OFFCURVE",
"377 -53 CURVE SMOOTH"
);
},
{
closed = 1;
nodes = (
"242 69 OFFCURVE",
"142 170 OFFCURVE",
"142 306 CURVE SMOOTH",
"142 442 OFFCURVE",
"242 543 OFFCURVE",
"377 543 CURVE SMOOTH",
"512 543 OFFCURVE",
"612 442 OFFCURVE",
"612 306 CURVE SMOOTH",
"612 170 OFFCURVE",
"512 69 OFFCURVE",
"377 69 CURVE SMOOTH"
);
},
{
closed = 1;
nodes = (
"398 176 OFFCURVE",
"441 236 OFFCURVE",
"441 283 CURVE SMOOTH",
"441 290 LINE SMOOTH",
"441 295 OFFCURVE",
"433 419 OFFCURVE",
"341 419 CURVE",
"286 419 OFFCURVE",
"253 392 OFFCURVE",
"253 345 CURVE SMOOTH",
"253 255 LINE SMOOTH",
"253 213 OFFCURVE",
"278 176 OFFCURVE",
"334 176 CURVE SMOOTH"
);
},
{
closed = 1;
nodes = (
"359 258 OFFCURVE",
"351 265 OFFCURVE",
"351 277 CURVE SMOOTH",
"351 320 LINE SMOOTH",
"351 332 OFFCURVE",
"359 340 OFFCURVE",
"371 340 CURVE SMOOTH",
"383 340 OFFCURVE",
"392 332 OFFCURVE",
"392 320 CURVE SMOOTH",
"392 277 LINE SMOOTH",
"392 265 OFFCURVE",
"383 258 OFFCURVE",
"371 258 CURVE SMOOTH"
);
},
{
closed = 1;
nodes = (
"490 180 LINE",
"490 416 LINE",
"392 416 LINE",
"392 180 LINE"
);
}
);
width = 754;
}
);
unicode = 0040;
},
{
color = 1;
glyphname = copyright;
lastChange = "2016-10-18 03:30:19 +0000";
layers = (
{
layerId = "262880E7-CFE1-4BDA-902E-E24798F3240A";
paths = (
{
closed = 1;
nodes = (
"655 -68 OFFCURVE",
"817 92 OFFCURVE",
"817 290 CURVE SMOOTH",
"817 488 OFFCURVE",
"655 648 OFFCURVE",
"456 648 CURVE SMOOTH",
"257 648 OFFCURVE",
"95 488 OFFCURVE",
"95 290 CURVE SMOOTH",
"95 92 OFFCURVE",
"257 -68 OFFCURVE",
"456 -68 CURVE SMOOTH"
);
},
{
closed = 1;
nodes = (
"269 -50 OFFCURVE",
"117 102 OFFCURVE",
"117 290 CURVE SMOOTH",
"117 478 OFFCURVE",
"269 630 OFFCURVE",
"456 630 CURVE SMOOTH",
"643 630 OFFCURVE",
"795 478 OFFCURVE",
"795 290 CURVE SMOOTH",
"795 102 OFFCURVE",
"643 -50 OFFCURVE",
"456 -50 CURVE SMOOTH"
);
},
{
closed = 1;
nodes = (
"528 103 OFFCURVE",
"574 148 OFFCURVE",
"574 223 CURVE SMOOTH",
"574 225 LINE",
"558 225 LINE",
"558 223 LINE SMOOTH",
"558 158 OFFCURVE",
"519 118 OFFCURVE",
"453 118 CURVE SMOOTH",
"388 118 OFFCURVE",
"349 158 OFFCURVE",
"349 223 CURVE SMOOTH",
"349 367 LINE SMOOTH",
"349 433 OFFCURVE",
"390 472 OFFCURVE",
"453 472 CURVE SMOOTH",
"517 472 OFFCURVE",
"558 433 OFFCURVE",
"558 367 CURVE SMOOTH",
"558 366 LINE",
"574 366 LINE",
"574 367 LINE SMOOTH",
"574 442 OFFCURVE",
"528 487 OFFCURVE",
"453 487 CURVE SMOOTH",
"379 487 OFFCURVE",
"332 442 OFFCURVE",
"332 367 CURVE SMOOTH",
"332 223 LINE SMOOTH",
"332 148 OFFCURVE",
"379 103 OFFCURVE",
"453 103 CURVE SMOOTH"
);
}
);
width = 912;
},
{
layerId = "4F25946F-63AC-42D6-8D55-01CF6A99025B";
paths = (
{
closed = 1;
nodes = (
"575 -53 OFFCURVE",
"737 108 OFFCURVE",
"737 306 CURVE SMOOTH",
"737 504 OFFCURVE",
"575 665 OFFCURVE",
"377 665 CURVE SMOOTH",
"179 665 OFFCURVE",
"17 504 OFFCURVE",
"17 306 CURVE SMOOTH",
"17 108 OFFCURVE",
"179 -53 OFFCURVE",
"377 -53 CURVE SMOOTH"
);
},
{
closed = 1;
nodes = (
"242 69 OFFCURVE",
"142 170 OFFCURVE",
"142 306 CURVE SMOOTH",
"142 442 OFFCURVE",
"242 543 OFFCURVE",
"377 543 CURVE SMOOTH",
"512 543 OFFCURVE",
"612 442 OFFCURVE",
"612 306 CURVE SMOOTH",
"612 170 OFFCURVE",
"512 69 OFFCURVE",
"377 69 CURVE SMOOTH"
);
},
{
closed = 1;
nodes = (
"449 170 OFFCURVE",
"497 214 OFFCURVE",
"502 290 CURVE",
"502 291 LINE",
"397 291 LINE",
"397 277 LINE SMOOTH",
"397 265 OFFCURVE",
"388 257 OFFCURVE",
"375 257 CURVE SMOOTH",
"362 257 OFFCURVE",
"353 265 OFFCURVE",
"353 277 CURVE",
"353 323 LINE",
"353 336 OFFCURVE",
"362 344 OFFCURVE",
"375 344 CURVE SMOOTH",
"388 344 OFFCURVE",
"397 336 OFFCURVE",
"397 323 CURVE",
"397 313 LINE",
"502 313 LINE",
"502 314 LINE",
"501 386 OFFCURVE",
"454 428 OFFCURVE",
"374 428 CURVE SMOOTH",
"294 428 OFFCURVE",
"247 382 OFFCURVE",
"247 302 CURVE SMOOTH",
"247 298 LINE SMOOTH",
"247 217 OFFCURVE",
"294 170 OFFCURVE",
"374 170 CURVE SMOOTH"
);
}
);
width = 754;
}
);
unicode = 00A9;
},
{
color = 1;
glyphname = registered;
lastChange = "2016-10-18 03:30:19 +0000";
layers = (
{
layerId = "262880E7-CFE1-4BDA-902E-E24798F3240A";
paths = (
{
closed = 1;
nodes = (
"655 -68 OFFCURVE",
"817 92 OFFCURVE",
"817 290 CURVE SMOOTH",
"817 488 OFFCURVE",
"655 648 OFFCURVE",
"456 648 CURVE SMOOTH",
"257 648 OFFCURVE",
"95 488 OFFCURVE",
"95 290 CURVE SMOOTH",
"95 92 OFFCURVE",
"257 -68 OFFCURVE",
"456 -68 CURVE SMOOTH"
);
},
{
closed = 1;
nodes = (
"269 -50 OFFCURVE",
"117 102 OFFCURVE",
"117 290 CURVE SMOOTH",
"117 478 OFFCURVE",
"269 630 OFFCURVE",
"456 630 CURVE SMOOTH",
"643 630 OFFCURVE",
"795 478 OFFCURVE",
"795 290 CURVE SMOOTH",
"795 102 OFFCURVE",
"643 -50 OFFCURVE",
"456 -50 CURVE SMOOTH"
);
},
{
closed = 1;
nodes = (
"395 104 LINE",
"395 488 LINE",
"467 488 LINE SMOOTH",
"523 488 OFFCURVE",
"558 452 OFFCURVE",
"558 393 CURVE SMOOTH",
"558 334 OFFCURVE",
"523 298 OFFCURVE",
"467 298 CURVE SMOOTH",
"392 298 LINE",
"392 286 LINE",
"467 286 LINE SMOOTH",
"530 287 OFFCURVE",
"570 327 OFFCURVE",
"570 393 CURVE SMOOTH",
"570 459 OFFCURVE",
"530 499 OFFCURVE",
"467 499 CURVE SMOOTH",
"382 499 LINE",
"382 104 LINE"
);
},
{
closed = 1;
nodes = (
"544 104 LINE",
"479 296 LINE",
"468 292 LINE",
"531 104 LINE"
);
}
